<svg xmlns="http://www.w3.org/2000/svg" width="241" height="237" viewBox="0 0 241 237">
  <g id="Group_240" data-name="Group 240" transform="translate(-1079 -108)">
    <ellipse id="Ellipse_38" data-name="Ellipse 38" cx="120.5" cy="118.5" rx="120.5" ry="118.5" transform="translate(1079 108)" fill="#ff9500"/>
    <path id="wallet-solid_1_" data-name="wallet-solid (1)" d="M138.852,60.9H24.085a4.817,4.817,0,1,1,0-9.634H139.7a4.816,4.816,0,0,0,4.817-4.817A14.451,14.451,0,0,0,130.061,32H19.268A19.267,19.267,0,0,0,0,51.268V147.61a19.267,19.267,0,0,0,19.268,19.268H138.852c8.436,0,15.294-6.482,15.294-14.451V75.354C154.146,67.384,147.288,60.9,138.852,60.9Zm-13.608,62.622a9.634,9.634,0,1,1,9.634-9.634A9.635,9.635,0,0,1,125.244,123.524Z" transform="translate(1126.527 125.297)" fill="#fff"/>
  </g>
</svg>
