<svg xmlns="http://www.w3.org/2000/svg" width="241" height="238" viewBox="0 0 241 238">
  <g id="Group_244" data-name="Group 244" transform="translate(-1079 -573)">
    <ellipse id="Ellipse_42" data-name="Ellipse 42" cx="120.5" cy="119" rx="120.5" ry="119" transform="translate(1079 573)" fill="#5ac8fa"/>
    <path id="book-solid" d="M125.4,100.767V6.718A6.7,6.7,0,0,0,118.681,0H26.871A26.878,26.878,0,0,0,0,26.871v89.57a26.878,26.878,0,0,0,26.871,26.871h91.81a6.7,6.7,0,0,0,6.718-6.718v-4.479a6.77,6.77,0,0,0-2.491-5.234c-1.176-4.311-1.176-16.6,0-20.909a6.671,6.671,0,0,0,2.491-5.206ZM35.828,37.508a1.684,1.684,0,0,1,1.679-1.679h59.34a1.684,1.684,0,0,1,1.679,1.679v5.6a1.684,1.684,0,0,1-1.679,1.679H37.508a1.684,1.684,0,0,1-1.679-1.679Zm0,17.914a1.684,1.684,0,0,1,1.679-1.679h59.34a1.684,1.684,0,0,1,1.679,1.679v5.6A1.684,1.684,0,0,1,96.848,62.7H37.508a1.684,1.684,0,0,1-1.679-1.679ZM106.757,125.4H26.871a8.957,8.957,0,1,1,0-17.914h79.886A100.768,100.768,0,0,0,106.757,125.4Z" transform="translate(1136.188 618.993)" fill="#fff"/>
  </g>
</svg>
