<svg xmlns="http://www.w3.org/2000/svg" width="243" height="237" viewBox="0 0 243 237">
  <g id="Group_237" data-name="Group 237" transform="translate(0.413)">
    <ellipse id="Ellipse_15" data-name="Ellipse 15" cx="121.5" cy="118.5" rx="121.5" ry="118.5" transform="translate(-0.413)" fill="#007aff"/>
    <path id="umbrella-beach-solid" d="M33.132,39.308,62.454,49.984C72.559,26.569,87.209,8.55,102.368.105A85.924,85.924,0,0,0,31,32.209,4.6,4.6,0,0,0,33.132,39.308ZM71.109,53.137,139.59,78.071c10.269-34.855,5.37-66.523-12.241-72.932a19.221,19.221,0,0,0-6.63-1.149c-16.661,0-36.834,19.863-49.609,49.147Zm78.638-35.768a65.13,65.13,0,0,1,3.79,15.848c1.648,14.326-.408,31.079-5.442,47.949l29.468,10.728a4.594,4.594,0,0,0,6.194-4.069,85.975,85.975,0,0,0-34.011-70.457Zm11.061,111.267H92.194l18.648-51.252L93.573,71.1,72.639,128.633H4.595A4.594,4.594,0,0,0,0,133.231v9.192a4.6,4.6,0,0,0,4.595,4.6H160.808a4.6,4.6,0,0,0,4.595-4.6v-9.192A4.593,4.593,0,0,0,160.808,128.636Z" transform="translate(34.753 32.335)" fill="#fff"/>
  </g>
</svg>
