<svg xmlns="http://www.w3.org/2000/svg" width="243" height="237" viewBox="0 0 243 237">
  <g id="Group_239" data-name="Group 239" transform="translate(-603 -108)">
    <ellipse id="Ellipse_37" data-name="Ellipse 37" cx="121.5" cy="118.5" rx="121.5" ry="118.5" transform="translate(603 108)" fill="#30d158"/>
    <path id="plane-departure-solid" d="M162.781,140.517H4.172A4.173,4.173,0,0,0,0,144.691v8.348a4.173,4.173,0,0,0,4.174,4.174H162.781a4.173,4.173,0,0,0,4.174-4.174v-8.348A4.173,4.173,0,0,0,162.781,140.517ZM21.011,112.674a8.6,8.6,0,0,0,6.347,2.794l34.054-.047a17.118,17.118,0,0,0,7.732-1.857l75.9-38.518a44.346,44.346,0,0,0,17.484-15.211c4.777-7.43,5.3-12.806,3.41-16.6s-6.454-6.592-15.2-7.161a43.819,43.819,0,0,0-22.508,5.082l-25.7,13.041L45.486,32.785a4.643,4.643,0,0,0-4.7-.29L23.638,41.2a4.766,4.766,0,0,0-1.349,7.443L63.043,74.235,36.118,87.9,17.244,78.385a4.645,4.645,0,0,0-4.192.005L2.583,83.7A4.769,4.769,0,0,0,1.13,91.03Z" transform="translate(641.827 130.151)" fill="#fff"/>
  </g>
</svg>
