<svg xmlns="http://www.w3.org/2000/svg" width="242" height="237" viewBox="0 0 242 237">
  <g id="Group_241" data-name="Group 241" transform="translate(-1510 -108)">
    <ellipse id="Ellipse_39" data-name="Ellipse 39" cx="121" cy="118.5" rx="121" ry="118.5" transform="translate(1510 108)" fill="#ff9500"/>
    <path id="receipt-solid" d="M102.279.894,91.32,13.679,75.8.894a4.537,4.537,0,0,0-5.479,0L54.792,13.679,39.268.894a4.537,4.537,0,0,0-5.479,0L18.264,13.679,7.306.894A4.564,4.564,0,0,0,0,4.547V141.527a4.564,4.564,0,0,0,7.306,3.653L18.264,132.4,33.789,145.18a4.537,4.537,0,0,0,5.479,0L54.792,132.4,70.317,145.18a4.537,4.537,0,0,0,5.479,0L91.32,132.4l10.958,12.785a4.568,4.568,0,0,0,7.306-3.653V4.547A4.564,4.564,0,0,0,102.279.894ZM91.32,102.716A2.29,2.29,0,0,1,89.037,105H20.547a2.29,2.29,0,0,1-2.283-2.283V98.15a2.29,2.29,0,0,1,2.283-2.283h68.49A2.29,2.29,0,0,1,91.32,98.15Zm0-27.4A2.29,2.29,0,0,1,89.037,77.6H20.547a2.29,2.29,0,0,1-2.283-2.283V70.754a2.29,2.29,0,0,1,2.283-2.283h68.49a2.29,2.29,0,0,1,2.283,2.283Zm0-27.4a2.29,2.29,0,0,1-2.283,2.283H20.547a2.29,2.29,0,0,1-2.283-2.283V43.358a2.29,2.29,0,0,1,2.283-2.283h68.49a2.29,2.29,0,0,1,2.283,2.283Z" transform="translate(1574.281 156.028)" fill="#fff"/>
  </g>
</svg>
