<svg height="512pt" viewBox="-11 0 512 512" width="512pt" xmlns="http://www.w3.org/2000/svg"><path d="m458.414062 387.386719c20.101563-35.554688 31.589844-76.628907 31.589844-120.386719 0-135.3125-109.691406-245.003906-245.003906-245.003906-135.308594 0-245 109.691406-245 245.003906 0 43.757812 11.484375 84.832031 31.585938 120.386719zm0 0" fill="#ef4a8a"/><path d="m471.699219 99.691406c0-31.761718-15.328125-61.886718-41.003907-80.585937-17.164062-12.5-37.457031-19.105469-58.6875-19.105469h-254.011718c-55.378906 0-99.691406 45.027344-99.691406 99.691406v237.765625c0 16.988281 4.878906 33.714844 13.28125 49.929688 8.371093 14.808593 18.238281 28.660156 29.398437 41.347656 6.246094 6.949219 12.992187 13.742187 20.113281 20.355469 43.414063 39.101562 100.875 62.910156 163.902344 62.910156 63.015625 0 120.46875-23.800781 163.878906-62.890625 7.199219-6.683594 14.015625-13.550781 20.316406-20.582031 11.085938-12.628906 20.890626-26.40625 29.214844-41.132813 8.402344-16.214843 13.289063-32.945312 13.289063-49.9375zm0 0" fill="#284cb2"/><path d="m471.699219 99.691406c0-31.761718-15.328125-61.886718-41.003907-80.585937-17.164062-12.5-37.457031-19.105469-58.6875-19.105469h-254.011718c-55.378906 0-99.691406 45.027344-99.691406 99.691406v237.765625c0 16.988281 4.878906 33.714844 13.28125 49.929688 8.371093 14.808593 18.238281 28.660156 29.398437 41.347656 6.246094 6.949219 12.992187 13.742187 20.113281 20.355469 43.414063 39.101562 100.875 62.910156 163.902344 62.910156 63.015625 0 120.46875-23.800781 163.878906-62.890625 7.199219-6.683594 14.015625-13.550781 20.316406-20.582031 11.085938-12.628906 20.890626-26.40625 29.214844-41.132813 8.402344-16.214843 13.289063-32.945312 13.289063-49.9375zm0 0" fill="#284cb2"/><path d="m132.527344 441.285156 9.199218-403.082031c-9.382812.574219-13.859374-11.175781-6.714843-17.050781-6.75-5.960938-5.609375-16.707032 2.167969-21.152344h-19.1875c-55.375 0-99.6875 45.027344-99.6875 99.691406v237.765625c0 16.988281 4.878906 33.714844 13.28125 49.929688 8.375 14.808593 18.238281 28.660156 29.402343 41.347656 16.238281 18.070313 31.429688 31.019531 48.476563 42.363281-2.90625-7.59375 1.730468-15.882812 9.582031-17.484375-3.765625-8.472656 5.480469-16.773437 13.480469-12.328125zm0 0" fill="#1d3ba8"/><path d="m372.007812 29.304688h-127.007812v235.675781h197.394531v-165.289063c0-38.59375-31.289062-70.386718-70.386719-70.386718zm0 0" fill="#55f3ff"/><path d="m245 29.304688h-127.003906c-39.050782 0-70.390625 31.722656-70.390625 70.386718v165.289063h197.394531zm0 0" fill="#06daf7"/><path d="m104.820312 96.691406c0-31.644531 21-58.628906 50.035157-67.386718h-36.859375c-39.050782 0-70.390625 31.722656-70.390625 70.386718v165.289063h57.214843zm0 0" fill="#05b8e2"/><path d="m442.394531 264.980469h-197.394531v247.019531c7.417969 0 14.753906-.347656 22-.992188.589844-.324218 1.191406-.652343 1.820312-.992187 46.113282-24.882813 112.71875-66.886719 148.535157-112.667969 13.410156-17.144531 25.039062-38.039062 25.039062-59.890625zm0 0" fill="#06daf7"/><path d="m47.605469 264.980469v72.476562c0 23.117188 12.988281 45.234375 27.609375 63.144531 36.316406 44.484376 100.804687 85.050782 145.925781 109.394532.648437.351562 1.261719.683594 1.867187 1.011718 7.246094.644532 14.578126.992188 21.992188.992188v-247.019531zm0 0" fill="#55f3ff"/><path d="m132.429688 445.449219c-14.621094-17.910157-27.609376-40.027344-27.609376-63.144531v-117.324219h-57.214843v72.476562c0 23.117188 12.988281 45.234375 27.609375 63.144531 20.855468 25.542969 50.996094 49.789063 81.425781 70.417969-8.90625-8.3125-17.101563-16.863281-24.210937-25.570312zm0 0" fill="#06daf7"/><path d="m245 147.953125-82.433594 82.433594v123.289062h164.867188v-123.289062zm0 0" fill="#60d882"/><path d="m207.859375 264.734375c0-9.902344 3.933594-19.402344 10.9375-26.40625l58.292969-58.289063-32.089844-32.085937-82.433594 82.433594v123.285156h45.292969zm0 0" fill="#37c47a"/><path d="m332.542969 334.261719h-174.625c-7.914063 0-14.746094 6.082031-15.09375 13.992187-.371094 8.390625 6.324219 15.3125 14.636719 15.3125h175.082031c8.089843 0 14.652343-6.558594 14.652343-14.652344 0-8.089843-6.5625-14.652343-14.652343-14.652343zm0 0" fill="#37c47a"/><path d="m194.574219 348.253906c.347656-7.910156 7.179687-13.992187 15.09375-13.992187h-51.75c-7.914063 0-14.746094 6.082031-15.09375 13.992187-.371094 8.390625 6.324219 15.3125 14.636719 15.3125h51.75c-8.3125 0-15.007813-6.921875-14.636719-15.3125zm0 0" fill="#00ad00"/><path d="m450.535156 337.457031v-237.765625c0-43.300781-35.226562-78.527344-78.527344-78.527344h-254.011718c-43.300782 0-78.527344 35.226563-78.527344 78.527344v237.765625c0 21.382813 9.902344 44.359375 29.441406 68.292969 16 19.597656 53.828125 57.925781 131.824219 102.253906 14.359375 2.617188 29.152344 3.996094 44.265625 3.996094s29.90625-1.378906 44.261719-3.996094c80.769531-45.90625 118.714843-85.457031 134.503906-105.640625 17.761719-22.707031 26.769531-44.546875 26.769531-64.90625zm-185.582031 165.398438c-1.554687.839843-2.988281 1.625-4.320313 2.359375-8.324218 4.566406-11.167968 6.015625-15.632812 6.015625-4.375 0-6.632812-1.144531-16.574219-6.546875l-3.417969-1.851563c-86.800781-46.828125-127.15625-87.378906-143.488281-107.378906-17.101562-20.953125-25.773437-40.464844-25.773437-58v-237.761719c0-34.324218 27.925781-62.246094 62.25-62.246094h254.011718c34.320313 0 62.246094 27.921876 62.246094 62.246094v237.765625c0 16.636719-7.84375 35.101563-23.3125 54.875-12.917968 16.515625-53.007812 60.347657-145.988281 110.523438zm0 0" fill="#406bcc"/><path d="m226.550781 299.597656-22.898437-22.898437c-5.257813-5.253907-5.257813-13.773438-.003906-19.027344 5.253906-5.253906 13.769531-5.257813 19.027343 0l13.386719 13.382813 31.257812-31.261719c5.257813-5.253907 13.777344-5.253907 19.03125 0 5.253907 5.253906 5.253907 13.773437 0 19.027343l-40.773437 40.777344c-5.253906 5.253906-13.769531 5.253906-19.027344 0zm0 0" fill="#e6fcff"/><path d="m189.859375 169.652344v-26.328125h-37.324219v63.648437zm0 0" fill="#284cb2"/><path d="m152.535156 163.453125v43.519531l37.324219-37.320312-6.550781 6.546875c-11.355469 11.359375-30.773438 3.316406-30.773438-12.746094zm0 0" fill="#1d3ba8"/><path d="m195.609375 116.234375h-48.824219c-2.109375 0-3.824218 1.710937-3.824218 3.824219v21.609375c0 2.113281 1.714843 3.824219 3.824218 3.824219h48.824219c2.113281 0 3.828125-1.710938 3.828125-3.824219v-21.609375c-.003906-2.113282-1.714844-3.824219-3.828125-3.824219zm0 0" fill="#5488e2"/><path d="m171.199219 141.667969v-21.609375c0-2.113282 1.710937-3.824219 3.824219-3.824219h-28.238282c-2.109375 0-3.824218 1.710937-3.824218 3.824219v21.609375c0 2.113281 1.714843 3.824219 3.824218 3.824219h28.238282c-2.113282 0-3.824219-1.710938-3.824219-3.824219zm0 0" fill="#406bcc"/><path d="m255.347656 122.6875c-5.714844-5.714844-14.980468-5.714844-20.691406 0l-97.28125 97.28125c-9.214844 9.214844-2.6875 24.972656 10.347656 24.972656 3.878906 0 7.597656-1.542968 10.34375-4.285156l86.933594-86.933594 86.9375 86.933594c2.742188 2.742188 6.464844 4.285156 10.34375 4.285156 13.035156 0 19.5625-15.757812 10.347656-24.972656zm0 0" fill="#406bcc"/><path d="m295.308594 162.648438-39.964844-39.960938c-5.710938-5.714844-14.976562-5.714844-20.6875 0l-97.28125 97.28125c-9.214844 9.214844-2.6875 24.972656 10.34375 24.972656 3.882812 0 7.601562-1.539062 10.347656-4.285156l86.933594-86.933594 29.6875 29.683594c-5.65625-13.015625 7.566406-26.328125 20.621094-20.757812zm0 0" fill="#284cb2"/><path d="m245 182.144531c-8.078125 0-14.628906-6.550781-14.628906-14.632812v-36.648438c0-8.082031 6.550781-14.628906 14.628906-14.628906 8.082031 0 14.632812 6.546875 14.632812 14.628906v36.648438c0 8.082031-6.550781 14.632812-14.632812 14.632812zm0 0" fill="#284cb2"/><path d="m245 151.355469c-8.078125 0-14.628906-6.550781-14.628906-14.628907v30.785157c0 8.082031 6.550781 14.632812 14.628906 14.632812 8.082031 0 14.632812-6.550781 14.632812-14.632812v-30.785157c0 8.082032-6.550781 14.628907-14.632812 14.628907zm0 0" fill="#1d3ba8"/><path d="m240.378906 266.742188-4.316406 4.3125-13.386719-13.382813c-5.253906-5.257813-13.773437-5.253906-19.027343 0-5.253907 5.253906-5.253907 13.773437.003906 19.027344l22.898437 22.898437c5.257813 5.253906 13.773438 5.253906 19.027344 0l13.75-13.753906c-11.882813 4.25-23.273437-7.3125-18.949219-19.101562zm0 0" fill="#b7dbf6"/><path d="m119.046875 453.613281c-2.84375-6.394531 1.902344-13.703125 9.042969-13.527343-23.71875-18.945313-38.257813-34.453126-46.570313-44.632813-17.101562-20.949219-25.773437-40.464844-25.773437-57.996094v-237.765625c0-34.324218 27.925781-62.246094 62.246094-62.246094h19.3125c-6.613282-2.867187-7.859376-11.699218-2.308594-16.28125h-17.003906c-43.296876 0-78.527344 35.226563-78.527344 78.527344v237.765625c0 21.382813 9.90625 44.359375 29.445312 68.292969 8.894532 10.894531 24.546875 27.585938 50.09375 47.875.015625-.003906.027344-.007812.042969-.011719zm0 0" fill="#284cb2"/></svg>