<svg xmlns="http://www.w3.org/2000/svg" width="1523.621" height="252" viewBox="0 0 1523.621 252"><g transform="translate(-265 -841)"><circle cx="61" cy="61" r="61" transform="translate(497 871)" fill="#ffc247"/><rect width="320" height="133" rx="66.5" transform="translate(318 960)" fill="#2800ff"/><ellipse cx="126.5" cy="126" rx="126.5" ry="126" transform="translate(305 841)" fill="#0064ff"/><rect width="167" height="64" rx="32" transform="translate(321 1029)" fill="#0064ff"/><circle cx="80.5" cy="80.5" r="80.5" transform="translate(265 932)" fill="#47ccff"/><path d="M9.3-55.508C10.8-19.141,40.605,3.281,86,3.281c47.715,0,77.793-23.516,77.793-60.977,0-29.395-16.953-45.937-57.012-55.1l-22.7-5.2c-24.2-5.742-34.18-13.4-34.18-26.523,0-16.406,15.039-27.344,37.324-27.344,22.559,0,38.008,11.074,39.648,29.531h33.633c-.82-34.727-29.531-58.242-73.008-58.242-42.93,0-73.418,23.652-73.418,58.652,0,28.164,17.227,45.664,53.594,54l25.566,6.016c24.883,5.879,35,14.082,35,28.3,0,16.406-16.543,28.164-40.332,28.164-24.062,0-42.246-11.895-44.434-30.078ZM239.8-23.379c-14.766,0-24.609-7.52-24.609-19.414,0-11.484,9.434-18.867,25.84-19.961l33.5-2.051V-53.73C274.531-36.23,259.082-23.379,239.8-23.379Zm-10.254,25.7c18.594,0,36.777-9.707,45.117-25.43h.684V0h32.813V-99.8c0-29.121-23.379-48.125-59.336-48.125-36.914,0-60.02,19.414-61.523,46.484h31.582c2.188-12.031,12.441-19.824,28.574-19.824,16.816,0,27.07,8.75,27.07,23.926v10.391L236.25-84.766c-35.273,2.188-55.1,17.637-55.1,43.34C181.152-15.312,201.523,2.324,229.551,2.324ZM336.465,0h34.043V-197.285H336.465ZM461.973-121.543c19.551,0,32.676,14.355,33.359,34.863H427.656C429.023-106.914,442.832-121.543,461.973-121.543Zm33.5,78.2c-3.691,12.031-15.723,19.961-31.582,19.961-22.285,0-36.5-15.586-36.5-38.828v-2.051H528.691V-75.332c0-44.023-25.7-72.6-66.855-72.6-41.836,0-68.359,30.215-68.359,76.016,0,46.211,26.25,74.785,69.727,74.785,34.316,0,59.746-18.867,64.121-46.211Zm52.5-60.02c0,20.918,13.535,34.863,40.332,41.152l26.387,6.152C628.77-52.5,634.1-47.988,634.1-39.512c0,10.8-10.254,17.5-26.8,17.5-17.227,0-27.48-7.383-29.531-20.645h-33.5c2.324,27.48,25.43,45.527,61.8,45.527,36.641,0,61.934-18.457,61.934-45.8,0-21.465-11.348-32.676-40.332-39.512l-25.84-5.742c-14.219-3.418-20.781-8.887-20.781-17.09,0-10.527,9.844-17.637,24.883-17.637,15.859,0,25.84,7.656,26.934,20.1H664.59c-.82-26.8-23.926-45.117-57.969-45.117C571.348-147.93,547.969-129.883,547.969-103.359ZM796.25,0h34.59V-197.285H795.977l-51.543,36.23v33.223l51-35.82h.82Zm99.395,1.5A19.405,19.405,0,0,0,915.2-18.184a19.49,19.49,0,0,0-19.551-19.687,19.52,19.52,0,0,0-19.687,19.688A19.436,19.436,0,0,0,895.645,1.5Zm124,2.461c48.262,0,76.973-39.785,76.973-102.949s-28.984-102.266-76.973-102.266c-48.125,0-77.246,39.375-77.246,102.4C942.4-35.547,971.25,3.965,1019.648,3.965Zm0-28.848c-26.25,0-41.7-27.617-41.7-74.1,0-45.664,15.723-73.418,41.7-73.418,25.84,0,41.289,27.48,41.289,73.555C1060.938-52.363,1045.762-24.883,1019.648-24.883Z" transform="translate(692 1086)" fill="#47ccff"/></g></svg>