<svg xmlns="http://www.w3.org/2000/svg" width="1267.547" height="252" viewBox="0 0 1267.547 252"><g transform="translate(-265 -383)"><circle cx="61" cy="61" r="61" transform="translate(497 413)" fill="#ffc247"/><rect width="320" height="133" rx="66.5" transform="translate(318 502)" fill="#2800ff"/><ellipse cx="126.5" cy="126" rx="126.5" ry="126" transform="translate(305 383)" fill="#0064ff"/><rect width="167" height="64" rx="32" transform="translate(321 571)" fill="#0064ff"/><circle cx="80.5" cy="80.5" r="80.5" transform="translate(265 474)" fill="#47ccff"/><path d="M183.75,0V-197.285H148.613v82.031H52.637v-82.031H17.363V0H52.637V-85.586h95.977V0Zm70-168.711h39.1c22.285,0,36.094,12.852,36.094,33.633,0,21.328-12.988,33.77-35.41,33.77H253.75Zm0,94.473h38.145L330.723,0h40.2L327.852-79.57c23.516-8.477,37.188-30.215,37.188-56.328,0-37.734-25.566-61.387-68.223-61.387h-78.34V0H253.75Zm238.3-13.672h24.336c24.473,0,39.512,12.168,39.512,32.129,0,18.184-16,30.9-38.691,30.9-23.516,0-38.281-12.031-39.922-30.078H443.652c1.777,35.137,29.941,58.926,73.281,58.926,43.066,0,74.785-23.516,74.785-58.379,0-27.48-19.141-45.527-48.672-47.715v-.82c24.336-4.238,40.742-21.875,40.742-46.348,0-30.762-27.617-51.953-66.445-51.953-40.742,0-67.949,22.969-69.863,58.379h32.813c1.367-18.457,15.039-30.352,35.41-30.352,22.148,0,34.18,11.484,34.18,28.711,0,17.637-13.809,30.078-34.043,30.078H492.051ZM639.57,1.5a19.405,19.405,0,0,0,19.551-19.687A19.49,19.49,0,0,0,639.57-37.871a19.52,19.52,0,0,0-19.687,19.688A19.436,19.436,0,0,0,639.57,1.5Zm124,2.461c48.262,0,76.973-39.785,76.973-102.949S811.563-201.25,763.574-201.25c-48.125,0-77.246,39.375-77.246,102.4C686.328-35.547,715.176,3.965,763.574,3.965Zm0-28.848c-26.25,0-41.7-27.617-41.7-74.1,0-45.664,15.723-73.418,41.7-73.418,25.84,0,41.289,27.48,41.289,73.555C804.863-52.363,789.688-24.883,763.574-24.883Z" transform="translate(692 628)" fill="#0064ff"/></g></svg>