<svg viewBox="0 0 512 512" xmlns="http://www.w3.org/2000/svg"><path d="m512 256c0 141.386719-114.613281 256-256 256s-256-114.613281-256-256 114.613281-256 256-256 256 114.613281 256 256zm0 0" fill="#22b27f"/><path d="m379.996094 480h-247.992188c-19.734375-10.949219-37.871094-24.425781-53.96875-40h355.933594c-16.101562 15.574219-34.238281 29.050781-53.972656 40zm0 0" fill="#028f5d"/><path d="m422 451h-362v-360h392v330c0 16.570312-13.429688 30-30 30zm0 0" fill="#ffdf8e"/><path d="m90 91v360h-30v-360zm0 0" fill="#fbc56d"/><path d="m351 275c0 52.46875-42.53125 95-95 95s-95-42.53125-95-95 42.53125-95 95-95 95 42.53125 95 95zm0 0" fill="#fd9d01"/><path d="m422 451h-362c-16.570312 0-30-13.429688-30-30v-20h362v20c0 16.570312 13.429688 30 30 30zm-201.367188-162.453125c.679688.660156.988282 1.613281.828126 2.550781l-6.851563 39.933594c-.402344 2.355469 2.070313 4.152344 4.1875 3.039062l35.859375-18.851562c.839844-.441406 1.847656-.441406 2.6875 0l35.859375 18.851562c2.117187 1.113282 4.589844-.683593 4.1875-3.039062l-6.851563-39.933594c-.160156-.933594.152344-1.890625.828126-2.550781l29.015624-28.28125c1.710938-1.667969.765626-4.578125-1.597656-4.921875l-40.097656-5.824219c-.9375-.136719-1.75-.726562-2.167969-1.578125l-17.933593-36.332031c-1.058594-2.144531-4.113282-2.144531-5.171876 0l-17.929687 36.332031c-.421875.851563-1.234375 1.441406-2.171875 1.578125l-40.097656 5.824219c-2.363282.34375-3.308594 3.253906-1.597656 4.921875zm0 0" fill="#fff2b4"/><path d="m90 451h-30c-16.570312 0-30-13.429688-30-30v-20h30v20c0 16.570312 13.429688 30 30 30zm0 0" fill="#ffe899"/><path d="m131.332031 81v60h-71.332031v-60c0-11.046875 8.953125-20 20-20h31.332031c11.046875 0 20 8.953125 20 20zm0 0" fill="#fd0464"/><path d="m452 81v60h-362v-60c0-11.046875 8.953125-20 20-20h58.652344c.285156-2.488281 4.757812-4.46875 10.25-4.46875 5.492187 0 9.960937 1.980469 10.246094 4.46875h219.503906c.285156-2.488281 4.757812-4.46875 10.25-4.46875 5.492187 0 9.964844 1.980469 10.25 4.46875h2.847656c11.046875 0 20 8.953125 20 20zm0 0" fill="#fd3980"/><path d="m140 84.941406v30c0 8.285156-6.714844 15-15 15s-15-6.714844-15-15v-30c0-8.285156 6.714844-15 15-15s15 6.714844 15 15zm225-15c-8.285156 0-15 6.714844-15 15v30c0 8.285156 6.714844 15 15 15s15-6.714844 15-15v-30c0-8.285156-6.714844-15-15-15zm0 0" fill="#bc003b"/><path d="m189.175781 61h-20.550781c-3.824219-12.171875-15.191406-21-28.625-21-16.570312 0-30 13.429688-30 30 0 3.222656.519531 6.324219 1.464844 9.234375.152344.476563.660156 1.851563.746094 2.066406 4.464843 10.964844 15.21875 18.699219 27.789062 18.699219v15c0 1.746094-.3125 3.417969-.863281 4.976562-10.921875-.183593-20.996094-3.859374-29.136719-9.976562v-.023438c-12.140625-9.117187-20-23.625-20-39.976562 0-27.613281 22.386719-50 50-50 24.539062 0 44.9375 17.683594 49.175781 41zm190.824219-41c-27.613281 0-50 22.386719-50 50 0 16.351562 7.859375 30.859375 20 39.976562v.023438c8.140625 6.117188 18.214844 9.792969 29.136719 9.980469.546875-1.5625.863281-3.230469.863281-4.980469v-15c-12.570312 0-23.324219-7.734375-27.789062-18.699219-.085938-.214843-.59375-1.589843-.746094-2.066406-.945313-2.910156-1.464844-6.011719-1.464844-9.234375 0-16.570312 13.429688-30 30-30 13.433594 0 24.800781 8.828125 28.625 21h20.550781c-4.238281-23.316406-24.636719-41-49.175781-41zm0 0" fill="#98e5fb"/></svg>