<svg xmlns="http://www.w3.org/2000/svg" width="243" height="238" viewBox="0 0 243 238">
  <g id="Group_243" data-name="Group 243" transform="translate(-603 -573)">
    <ellipse id="Ellipse_41" data-name="Ellipse 41" cx="121.5" cy="119" rx="121.5" ry="119" transform="translate(603 573)" fill="#ff2d55"/>
    <path id="user-plus-solid" d="M174.662,58.221H156.748V40.307a4.492,4.492,0,0,0-4.479-4.479h-8.957a4.492,4.492,0,0,0-4.479,4.479V58.221H120.92a4.492,4.492,0,0,0-4.479,4.479v8.957a4.492,4.492,0,0,0,4.479,4.479h17.914V94.049a4.492,4.492,0,0,0,4.479,4.479h8.957a4.492,4.492,0,0,0,4.479-4.479V76.135h17.914a4.492,4.492,0,0,0,4.479-4.479V62.7A4.492,4.492,0,0,0,174.662,58.221ZM62.7,71.656A35.828,35.828,0,1,0,26.871,35.828,35.825,35.825,0,0,0,62.7,71.656Zm25.08,8.957H83.1a48.725,48.725,0,0,1-40.811,0H37.62A37.629,37.629,0,0,0,0,118.233v11.644a13.439,13.439,0,0,0,13.436,13.436h98.528A13.439,13.439,0,0,0,125.4,129.877V118.233A37.629,37.629,0,0,0,87.779,80.613Z" transform="translate(644.961 618.993)" fill="#f2f2f2"/>
  </g>
</svg>
