<svg xmlns="http://www.w3.org/2000/svg" width="243" height="238" viewBox="0 0 243 238">
  <g id="Group_242" data-name="Group 242" transform="translate(-166 -573)">
    <ellipse id="Ellipse_40" data-name="Ellipse 40" cx="121.5" cy="119" rx="121.5" ry="119" transform="translate(166 573)" fill="#30d158"/>
    <path id="key-solid" d="M143.313,49.264a49.29,49.29,0,0,1-58.452,48.4l-6.721,7.561a6.717,6.717,0,0,1-5.021,2.255H62.7v11.2a6.718,6.718,0,0,1-6.718,6.718h-11.2v11.2a6.718,6.718,0,0,1-6.718,6.718H6.718A6.718,6.718,0,0,1,0,136.595V114.746A6.719,6.719,0,0,1,1.967,110l45.29-45.29a49.268,49.268,0,1,1,96.056-15.442ZM94.049,35.828a13.436,13.436,0,1,0,13.436-13.436A13.435,13.435,0,0,0,94.049,35.828Z" transform="translate(215.314 618.993)" fill="#fff"/>
  </g>
</svg>
