<svg xmlns="http://www.w3.org/2000/svg" width="221" height="220" viewBox="0 0 221 220"><g transform="translate(-1099 -151)"><ellipse cx="110.5" cy="110" rx="110.5" ry="110" transform="translate(1099 151)" fill="#32d74b"/><path d="M0,0H149.82V149.82H0Z" transform="translate(1135 187)" fill="none"/><path d="M102.88,107.122l12.485,6.242V13.485A12.522,12.522,0,0,0,102.88,1H40.393A12.468,12.468,0,0,0,27.97,13.485H90.395A12.522,12.522,0,0,1,102.88,25.97ZM77.91,25.97H15.485A12.522,12.522,0,0,0,3,38.455v99.88l43.7-18.727,43.7,18.727V38.455A12.522,12.522,0,0,0,77.91,25.97Z" transform="translate(1150.728 192.242)" fill="#fff"/></g></svg>