<svg xmlns="http://www.w3.org/2000/svg" width="72" height="30" viewBox="0 0 72 30"><g transform="translate(-307.5 -113)"><rect width="72" height="30" rx="5" transform="translate(307.5 113)" fill="#007aff"/><g transform="translate(339 119)"><text transform="translate(0 14)" fill="#fff" font-size="15" font-family="SFProText-Semibold, SF Pro Text" font-weight="600" letter-spacing="-0.024em"><tspan x="0" y="0">ADD</tspan></text></g><path d="M1539.543-1410.077v-4.847H1534.7a1.077,1.077,0,0,1-1.077-1.076,1.077,1.077,0,0,1,1.077-1.077h4.846v-4.847a1.077,1.077,0,0,1,1.077-1.076,1.077,1.077,0,0,1,1.077,1.076v4.847h4.846a1.077,1.077,0,0,1,1.077,1.077,1.077,1.077,0,0,1-1.077,1.076H1541.7v4.847a1.077,1.077,0,0,1-1.077,1.076A1.077,1.077,0,0,1,1539.543-1410.077Z" transform="translate(-1214.74 1544)" fill="#fff" stroke="rgba(0,0,0,0)" stroke-width="1"/></g></svg>