<svg xmlns="http://www.w3.org/2000/svg" width="221" height="216" viewBox="0 0 221 216"><g transform="translate(-615 -577)"><ellipse cx="110.5" cy="108" rx="110.5" ry="108" transform="translate(615 577)" fill="#ff453a"/><path d="M110.7,121.875h-5.078V6.094A6.094,6.094,0,0,0,99.531,0H14.219A6.094,6.094,0,0,0,8.125,6.094V121.875H3.047A3.047,3.047,0,0,0,0,124.922V130H113.75v-5.078A3.047,3.047,0,0,0,110.7,121.875ZM32.5,19.3a3.047,3.047,0,0,1,3.047-3.047H45.7A3.047,3.047,0,0,1,48.75,19.3V29.453A3.047,3.047,0,0,1,45.7,32.5H35.547A3.047,3.047,0,0,1,32.5,29.453Zm0,24.375a3.047,3.047,0,0,1,3.047-3.047H45.7a3.047,3.047,0,0,1,3.047,3.047V53.828A3.047,3.047,0,0,1,45.7,56.875H35.547A3.047,3.047,0,0,1,32.5,53.828ZM45.7,81.25H35.547A3.047,3.047,0,0,1,32.5,78.2V68.047A3.047,3.047,0,0,1,35.547,65H45.7a3.047,3.047,0,0,1,3.047,3.047V78.2A3.047,3.047,0,0,1,45.7,81.25ZM65,121.875H48.75V100.547A3.047,3.047,0,0,1,51.8,97.5H61.953A3.047,3.047,0,0,1,65,100.547ZM81.25,78.2A3.047,3.047,0,0,1,78.2,81.25H68.047A3.047,3.047,0,0,1,65,78.2V68.047A3.047,3.047,0,0,1,68.047,65H78.2a3.047,3.047,0,0,1,3.047,3.047Zm0-24.375A3.047,3.047,0,0,1,78.2,56.875H68.047A3.047,3.047,0,0,1,65,53.828V43.672a3.047,3.047,0,0,1,3.047-3.047H78.2a3.047,3.047,0,0,1,3.047,3.047Zm0-24.375A3.047,3.047,0,0,1,78.2,32.5H68.047A3.047,3.047,0,0,1,65,29.453V19.3a3.047,3.047,0,0,1,3.047-3.047H78.2A3.047,3.047,0,0,1,81.25,19.3Z" transform="translate(670 622)" fill="#fff"/></g></svg>