<svg xmlns="http://www.w3.org/2000/svg" width="223" height="216" viewBox="0 0 223 216"><g transform="translate(-193 -580)"><ellipse cx="111.5" cy="108" rx="111.5" ry="108" transform="translate(193 580)" fill="#5ac8fa"/><g transform="translate(227 613.053)"><path d="M0,0H155.33V155.33H0Z" fill="none"/><path d="M94.609,2H16.944A12.982,12.982,0,0,0,4,14.944V118.5a12.982,12.982,0,0,0,12.944,12.944H94.609A12.982,12.982,0,0,0,107.554,118.5V14.944A12.982,12.982,0,0,0,94.609,2ZM16.944,14.944H49.3V66.721l-16.18-9.708-16.18,9.708Zm4.077,91.839L33.9,90.215a3.232,3.232,0,0,1,5.048-.065l11.261,13.591L67.038,82.125a3.184,3.184,0,0,1,5.113.065l18.575,24.723a3.234,3.234,0,0,1-2.589,5.178H23.546A3.3,3.3,0,0,1,21.022,106.783Z" transform="translate(21.888 10.944)" fill="#fff"/></g></g></svg>