<svg xmlns="http://www.w3.org/2000/svg" width="224" height="216" viewBox="0 0 224 216"><g transform="translate(-1507 -580)"><ellipse cx="112" cy="108" rx="112" ry="108" transform="translate(1507 580)" fill="#ff9f0a"/><path d="M0,0H154.25V154.25H0Z" transform="translate(1543 604.75)" fill="none"/><path d="M16.854,2A12.837,12.837,0,0,0,4.064,14.854L4,117.687a12.837,12.837,0,0,0,12.79,12.854H93.979a12.892,12.892,0,0,0,12.854-12.854V45.9a12.636,12.636,0,0,0-3.792-9.062L72,5.792A12.636,12.636,0,0,0,62.936,2H16.854Zm44.99,38.562V11.641L97.193,46.99H68.271A6.446,6.446,0,0,1,61.844,40.562Z" transform="translate(1564.708 615.604)" fill="#fff"/></g></svg>