<svg xmlns="http://www.w3.org/2000/svg" width="224" height="220" viewBox="0 0 224 220"><g transform="translate(-1507 -151)"><ellipse cx="112" cy="110" rx="112" ry="110" transform="translate(1507 151)" fill="#32d74b"/><path d="M0,0H169.236V169.236H0Z" transform="translate(1543 177.764)" fill="none"/><path d="M13.077,46.809A10.577,10.577,0,1,0,23.654,57.386,10.563,10.563,0,0,0,13.077,46.809Zm0-42.309A10.577,10.577,0,1,0,23.654,15.077,10.563,10.563,0,0,0,13.077,4.5Zm0,84.618A10.577,10.577,0,1,0,23.654,99.7,10.608,10.608,0,0,0,13.077,89.118Zm28.206,17.629H125.9a7.051,7.051,0,1,0,0-14.1H41.283a7.051,7.051,0,1,0,0,14.1Zm0-42.309H125.9a7.051,7.051,0,1,0,0-14.1H41.283a7.051,7.051,0,1,0,0,14.1Zm-7.051-49.36a7.072,7.072,0,0,0,7.051,7.051H125.9a7.051,7.051,0,1,0,0-14.1H41.283A7.072,7.072,0,0,0,34.232,15.077Z" transform="translate(1558.129 204.996)" fill="#fff"/></g></svg>