<svg xmlns="http://www.w3.org/2000/svg" width="223" height="220" viewBox="0 0 223 220"><g transform="translate(-193 -1160)"><g transform="translate(0 1009)"><g transform="translate(193.482 150.988)"><ellipse cx="111.5" cy="110" rx="111.5" ry="110" transform="translate(-0.482 0.012)" fill="#0a84ff"/></g></g><path d="M88.536,37.468H9.867a7.867,7.867,0,1,0,0,15.734H88.536a7.867,7.867,0,1,0,0-15.734ZM88.536,6H9.867a7.867,7.867,0,0,0,0,15.734H88.536A7.867,7.867,0,0,0,88.536,6ZM9.867,84.669h47.2a7.867,7.867,0,0,0,0-15.734H9.867a7.867,7.867,0,0,0,0,15.734ZM160.991,54.854l.708.708a7.834,7.834,0,0,1,0,11.092L117.8,110.63a7.834,7.834,0,0,1-11.092,0L82.4,86.321a7.834,7.834,0,0,1,0-11.092l.708-.708a7.834,7.834,0,0,1,11.092,0l18.094,18.094,37.6-37.683a7.765,7.765,0,0,1,11.092-.079Z" transform="translate(229 1216.661)" fill="#fff"/></g></svg>