<svg xmlns="http://www.w3.org/2000/svg" width="221" height="216" viewBox="0 0 221 216"><g transform="translate(-1099 -580)"><ellipse cx="110.5" cy="108" rx="110.5" ry="108" transform="translate(1099 580)" fill="#ff453a"/><path d="M64.6,73.831A36.915,36.915,0,1,0,27.687,36.915,36.913,36.913,0,0,0,64.6,73.831Zm27.629,9.4-13.786,55.2L69.216,99.21l9.229-16.15H50.759l9.229,16.15-9.229,39.223-13.786-55.2A38.694,38.694,0,0,0,0,121.821v12a13.847,13.847,0,0,0,13.843,13.843H115.361A13.847,13.847,0,0,0,129.2,133.818v-12A38.694,38.694,0,0,0,92.231,83.233Z" transform="translate(1145 608.339)" fill="#fff"/></g></svg>