<svg xmlns="http://www.w3.org/2000/svg" width="44" height="44" viewBox="0 0 44 44"><g transform="translate(-42 -103)"><g transform="translate(41.666 102.743)"><circle cx="22" cy="22" r="22" transform="translate(0.334 0.257)" fill="#30d158"/></g><path d="M20.832,18.259l-4.113-4.112a.989.989,0,0,0-.7-.289h-.672a8.578,8.578,0,1,0-1.485,1.485v.672a.989.989,0,0,0,.289.7l4.113,4.112a.986.986,0,0,0,1.4,0l1.167-1.167a.994.994,0,0,0,0-1.4ZM8.58,14.518a5.939,5.939,0,1,1,5.94-5.939A5.936,5.936,0,0,1,8.58,14.518ZM9.7,8.226,7.842,7.669a.539.539,0,0,1-.362-.525A.519.519,0,0,1,7.967,6.6H9.126a.988.988,0,0,1,.529.153.339.339,0,0,0,.418-.03l.485-.462a.33.33,0,0,0-.024-.5A2.362,2.362,0,0,0,9.24,5.292V4.62a.33.33,0,0,0-.33-.33H8.25a.33.33,0,0,0-.33.33v.665A1.837,1.837,0,0,0,6.16,7.144a1.867,1.867,0,0,0,1.3,1.79l1.857.557a.539.539,0,0,1,.362.525.519.519,0,0,1-.487.544H8.035a.988.988,0,0,1-.529-.153.339.339,0,0,0-.418.03L6.6,10.9a.33.33,0,0,0,.024.5,2.362,2.362,0,0,0,1.294.468v.672a.33.33,0,0,0,.33.33h.66a.33.33,0,0,0,.33-.33v-.665A1.837,1.837,0,0,0,11,10.015a1.867,1.867,0,0,0-1.3-1.79Z" transform="translate(53 113.952)" fill="#fff"/></g></svg>