<svg xmlns="http://www.w3.org/2000/svg" width="221" height="220" viewBox="0 0 221 220"><g transform="translate(-615 -148)"><ellipse cx="110.5" cy="110" rx="110.5" ry="110" transform="translate(615 148)" fill="#30d158"/><path d="M70.618,8a70.618,70.618,0,1,0,70.618,70.618A70.606,70.606,0,0,0,70.618,8ZM93.4,55.838a9.112,9.112,0,1,1-9.112,9.112A9.1,9.1,0,0,1,93.4,55.838Zm-45.56,0a9.112,9.112,0,1,1-9.112,9.112A9.1,9.1,0,0,1,47.838,55.838ZM103.307,104.3a42.536,42.536,0,0,1-65.379,0c-3.873-4.641,3.132-10.45,7-5.837a33.458,33.458,0,0,0,51.369,0c3.816-4.613,10.849,1.2,7,5.837Z" transform="translate(656 179.764)" fill="#fff"/></g></svg>