<svg xmlns="http://www.w3.org/2000/svg" width="223" height="220" viewBox="0 0 223 220"><g transform="translate(-615 -1160)"><ellipse cx="111.5" cy="110" rx="111.5" ry="110" transform="translate(615 1160)" fill="#0a84ff"/><path d="M0,0H149V149H0Z" transform="translate(654 1200)" fill="none"/><path d="M102.333,13.417H76.382a18.551,18.551,0,0,0-35.015,0H15.417A12.453,12.453,0,0,0,3,25.833V112.75a12.453,12.453,0,0,0,12.417,12.417h86.917A12.453,12.453,0,0,0,114.75,112.75V25.833A12.453,12.453,0,0,0,102.333,13.417Zm-43.458,0a6.208,6.208,0,1,1-6.208,6.208A6.227,6.227,0,0,1,58.875,13.417ZM42.05,95.925l-16.08-16.08a6.19,6.19,0,0,1,8.754-8.754L46.458,82.764l36.5-36.5a6.19,6.19,0,0,1,8.754,8.754L50.8,95.925a6.183,6.183,0,0,1-8.754,0Z" transform="translate(669.625 1205.208)" fill="#fff"/></g></svg>