<svg height="512pt" viewBox="0 0 512 512" width="512pt" xmlns="http://www.w3.org/2000/svg"><path d="m512 256c0 141.386719-114.613281 256-256 256s-256-114.613281-256-256 114.613281-256 256-256 256 114.613281 256 256zm0 0" fill="#303a59"/><path d="m484 92.390625v280.128906c-42.398438 82.800781-128.578125 139.480469-228 139.480469-75.378906 0-143.148438-32.578125-190-84.429688-14.941406-16.53125-27.75-35.03125-38-55.050781v-280.128906c0-20.101563 16.289062-36.390625 36.390625-36.390625h383.21875c20.101563 0 36.390625 16.289062 36.390625 36.390625zm0 0" fill="#ebf0f3"/><path d="m102.390625 56c-2.421875 0-4.78125.238281-7.0625.691406-13.6875 2.6875-24.617187 13.046875-28.128906 26.417969-.789063 2.960937-1.199219 6.070313-1.199219 9.28125v335.179687c-14.941406-16.53125-27.75-35.03125-38-55.050781v-280.128906c0-20.101563 16.289062-36.390625 36.390625-36.390625zm0 0" fill="#c7d9ff"/><path d="m162.484375 231.328125c-6.871094 0-13.453125-2.917969-18.070313-8.003906-4.589843-5.0625-6.839843-11.851563-6.175781-18.632813 2.84375-29.101562 16.355469-56.027344 38.039063-75.804687 21.835937-19.917969 50.148437-30.886719 79.722656-30.886719s57.886719 10.96875 79.71875 30.882812c21.6875 19.78125 35.199219 46.703126 38.042969 75.808594.664062 6.78125-1.589844 13.570313-6.175781 18.628906-4.617188 5.089844-11.203126 8.007813-18.070313 8.007813zm0 0" fill="#0c99e6"/><path d="m162.484375 216.328125c-5.492187 0-9.851563-4.714844-9.316406-10.175781 5.109375-52.292969 49.199219-93.152344 102.832031-93.152344s97.722656 40.859375 102.835938 93.152344c.53125 5.460937-3.828126 10.175781-9.320313 10.175781zm0 0" fill="#fff"/><path d="m276.007812 114.941406c-6.472656-1.269531-13.160156-1.941406-20.007812-1.941406-53.632812 0-97.722656 40.859375-102.835938 93.152344-.53125 5.460937 3.828126 10.175781 9.320313 10.175781h30.1875c0-50.226563 35.839844-92.074219 83.335937-101.386719zm0 0" fill="#ebf0f3"/><path d="m412.398438 259.800781h-76.199219c-6.398438 0-12.050781 4.164063-13.945313 10.277344l-9.085937 29.300781c-1.894531 6.109375-7.546875 10.277344-13.945313 10.277344h-86.445312c-6.398438 0-12.050782-4.167969-13.945313-10.277344l-9.085937-29.300781c-1.894532-6.113281-7.546875-10.277344-13.945313-10.277344h-76.199219c-8.066406 0-14.601562 6.535157-14.601562 14.597657v172.097656c45.332031 40.722656 105.269531 65.503906 171 65.503906s125.667969-24.78125 171-65.503906v-172.097656c0-8.0625-6.535156-14.597657-14.601562-14.597657zm0 0" fill="#0c99e6"/><path d="m85 274.398438v172.097656c12.3125 11.0625 25.707031 20.941406 40 29.472656v-201.570312c0-8.0625 6.535156-14.597657 14.601562-14.597657h-40c-8.066406 0-14.601562 6.535157-14.601562 14.597657zm0 0" fill="#066ae7"/><path d="m256 210.832031c-4.140625 0-7.5-3.359375-7.5-7.5v-48.332031c0-4.144531 3.359375-7.5 7.5-7.5s7.5 3.355469 7.5 7.5v48.332031c0 4.140625-3.359375 7.5-7.5 7.5zm0 0" fill="#232d47"/><path d="m256 190.332031c-14.355469 0-25.996094 11.640625-25.996094 25.996094h51.992188c0-14.355469-11.640625-25.996094-25.996094-25.996094zm0 0" fill="#3e4a68"/><path d="m266 192.328125c-3.078125-1.28125-6.457031-1.996094-10-1.996094-14.355469 0-25.996094 11.640625-25.996094 25.996094h20c0-10.8125 6.605469-20.082031 15.996094-24zm0 0" fill="#303a59"/></svg>