<svg xmlns="http://www.w3.org/2000/svg" xmlns:xlink="http://www.w3.org/1999/xlink" width="100" height="100" viewBox="0 0 100 100">
    <defs>
        <path id="a" d="M49.823 0C22.307 0 0 22.386 0 50s22.307 50 49.823 50c27.516 0 49.822-22.386 49.822-50S77.34 0 49.823 0z"/>
        <linearGradient id="b" x1="50%" x2="50%" y1="22.954%" y2="75.504%">
            <stop offset="0%" stop-color="#D3E2FB"/>
            <stop offset="100%" stop-color="#EFF4FF"/>
        </linearGradient>
        <path id="d" d="M.177.178h99.646v6.406H.177z"/>
    </defs>
    <g fill="none" fill-rule="evenodd">
        <g>
            <mask id="c" fill="#fff">
                <use xlink:href="#a"/>
            </mask>
            <path fill="url(#b)" d="M49.823 0C22.307 0 0 22.386 0 50s22.307 50 49.823 50c27.516 0 49.822-22.386 49.822-50S77.34 0 49.823 0z" mask="url(#c)"/>
        </g>
        <g transform="translate(0 87.189)">
            <mask id="e" fill="#fff">
                <use xlink:href="#d"/>
            </mask>
            <path fill="#EFEFEF" d="M99.823 3.38c0 1.77-22.307 3.204-49.823 3.204C22.484 6.584.177 5.15.177 3.38.177 1.61 22.484.178 50 .178c27.516 0 49.823 1.434 49.823 3.203" mask="url(#e)"/>
        </g>
        <path fill="#007AE8" d="M79.671 62.698H16.578c-3.874 0-7.015-3.152-7.015-7.04v-39.33c0-3.888 3.14-7.04 7.015-7.04h63.093c3.875 0 7.016 3.152 7.016 7.04v39.33c0 3.888-3.141 7.04-7.016 7.04"/>
        <path fill="#0D98FF" d="M83.067 62.698H19.974c-3.874 0-7.015-3.152-7.015-7.04v-39.33c0-3.888 3.14-7.04 7.015-7.04h63.093c3.875 0 7.016 3.152 7.016 7.04v39.33c0 3.888-3.141 7.04-7.016 7.04"/>
        <path fill="#0064D2" d="M80.455 57.1H22.587a4.323 4.323 0 0 1-4.315-4.331V18.856a4.323 4.323 0 0 1 4.315-4.331h57.868a4.323 4.323 0 0 1 4.315 4.33V52.77a4.323 4.323 0 0 1-4.315 4.33"/>
        <path fill="#E6E7E8" d="M71.5 53.193H31.541a1.61 1.61 0 0 1-1.608-1.613v-5.134c0-.892.72-1.614 1.608-1.614H71.5a1.61 1.61 0 0 1 1.608 1.614v5.134a1.61 1.61 0 0 1-1.608 1.613"/>
        <path fill="#005696" d="M80.454 14.525h-1.773a4.323 4.323 0 0 1 4.316 4.33V52.77a4.323 4.323 0 0 1-4.316 4.33h1.773a4.323 4.323 0 0 0 4.316-4.33V18.856a4.323 4.323 0 0 0-4.316-4.33M30.283 80.916L21.467 62.25a2.481 2.481 0 0 0-.342-.529l.394-.014.827-.978-3.059.118a2.43 2.43 0 0 0-1.083.235L8.08 65.899a2.462 2.462 0 0 0-1.165 3.275l8.817 18.664a2.446 2.446 0 0 0 2.408 1.395l-.006.006 3.037-.14-.182-1.041 8.13-3.868a2.462 2.462 0 0 0 1.164-3.274"/>
        <path fill="#EAC800" d="M53.856 49.141l.987-1.113-2.802.102-.537.02-.036.001-.036.001v.001a2.678 2.678 0 0 0-1.073.26l-15.072 7.333a6.045 6.045 0 0 0-.89-1.372l.679-.18.537-.994-3.159.115.002.001c-.332-.01-.67.06-1.007.223-1.443.702-4.166 1.828-5.851 2.847-1.687 1.019-2.496 5.287-2.496 5.287l-6.537 3.478 8.315 17.216 5.371-2.613c1.593 3.298 7.425 2.119 7.425 2.119l7.016-4.373a4.44 4.44 0 0 0 2.363-5.05L43.14 58.68l9.54-4.64c1.844-.897 2.15-3.133 1.568-4.34a2.302 2.302 0 0 0-.392-.56"/>
        <path fill="#FFDF00" d="M26.532 61.548s.81-4.269 2.496-5.287c1.686-1.02 4.409-2.145 5.852-2.847 1.442-.702 2.905.275 3.838 2.206l15.07-7.331c1.444-.702 3.307.08 3.89 1.287.583 1.207.276 3.442-1.567 4.34l-9.54 4.64 3.915 13.768a4.44 4.44 0 0 1-2.364 5.05l-7.845 3.816c-1.282.625-5.003 1.736-6.595-1.561l-5.371 2.613-8.316-17.216 6.537-3.478z"/>
        <path fill="#0064D2" d="M22.152 88.891l10.125-4.816A2.462 2.462 0 0 0 33.44 80.8l-8.817-18.664a2.446 2.446 0 0 0-3.263-1.169l-10.124 4.816a2.463 2.463 0 0 0-1.164 3.275l8.817 18.665a2.445 2.445 0 0 0 3.262 1.168"/>
        <path fill="#E6E7E8" d="M31.848 80.56a1.969 1.969 0 0 1-1.191 2.511 1.958 1.958 0 0 1-2.503-1.195 1.969 1.969 0 0 1 1.19-2.512 1.958 1.958 0 0 1 2.504 1.195"/>
        <path fill="#FFDF00" d="M63.01 29.82c0 6.032-4.872 10.921-10.882 10.921s-10.883-4.89-10.883-10.921c0-6.032 4.872-10.921 10.883-10.921 6.01 0 10.882 4.89 10.882 10.92"/>
        <path fill="#0064D2" d="M57.499 27.006a1.365 1.365 0 0 0-1.936 0l-4.283 4.299-1.868-1.875c-.505-.507-1.326-.589-1.877-.132a1.377 1.377 0 0 0-.1 2.033l1.91 1.916.59.592a1.899 1.899 0 0 0 2.69 0l.59-.592L57.5 28.95a1.377 1.377 0 0 0 0-1.943"/>
    </g>
</svg>
