<svg xmlns="http://www.w3.org/2000/svg" xmlns:xlink="http://www.w3.org/1999/xlink" width="100" height="100" viewBox="0 0 100 100">
    <defs>
        <path id="a" d="M49.823 0C22.306 0 0 22.386 0 50s22.306 50 49.823 50c27.516 0 49.822-22.386 49.822-50S77.34 0 49.823 0z"/>
        <linearGradient id="b" x1="50%" x2="50%" y1="22.954%" y2="75.504%">
            <stop offset="0%" stop-color="#D3E2FB"/>
            <stop offset="100%" stop-color="#EFF4FF"/>
        </linearGradient>
    </defs>
    <g fill="none" fill-rule="evenodd">
        <g>
            <mask id="c" fill="#fff">
                <use xlink:href="#a"/>
            </mask>
            <path fill="url(#b)" d="M49.823 0C22.306 0 0 22.386 0 50s22.306 50 49.823 50c27.516 0 49.822-22.386 49.822-50S77.34 0 49.823 0z" mask="url(#c)"/>
        </g>
        <path fill="#EFEFEF" d="M99.823 90.57c0 1.768-22.306 3.202-49.823 3.202-27.516 0-49.823-1.434-49.823-3.203S22.484 87.367 50 87.367c27.517 0 49.823 1.433 49.823 3.202"/>
        <path fill="#0D98FF" d="M80.184 20.387c.243-.104.489-.192.735-.267L75.755 7.855a2.661 2.661 0 0 0-3.482-1.418L23.109 27.289c.009.019.02.037.027.056a3.571 3.571 0 0 1-1.89 4.674 3.55 3.55 0 0 1-4.658-1.897l-.021-.059-13.341 5.659a2.678 2.678 0 0 0-1.413 3.494l5.15 12.23c.047-.022.094-.045.142-.065 3.737-1.585 8.046.17 9.626 3.92 1.579 3.75-.17 8.075-3.907 9.66l-.145.058 5.332 12.663a2.661 2.661 0 0 0 3.482 1.417l13.346-5.66c-.024-.05-.051-.098-.073-.15a3.571 3.571 0 0 1 1.89-4.675 3.55 3.55 0 0 1 4.659 1.897c.021.052.037.105.057.158L90.54 49.815a2.677 2.677 0 0 0 1.413-3.494l-5.347-12.698c-.226.125-.46.24-.703.344-3.736 1.584-8.046-.17-9.625-3.92-1.58-3.751.17-8.076 3.906-9.66"/>
        <path fill="#E6E7E8" d="M23.35 34.187l1.089 2.586c.18.429-.212 1.004-.876 1.286-.664.282-1.349.162-1.53-.266l-1.088-2.586c-.18-.429.212-1.004.876-1.286.664-.281 1.348-.162 1.529.266M25.146 41.817c-.664.282-1.057.857-.876 1.286l2.236 5.31c.18.428.865.547 1.53.265.663-.282 1.055-.857.875-1.286l-2.236-5.31c-.18-.428-.865-.547-1.53-.265m4.473 10.62c-.664.281-1.056.857-.876 1.285l2.236 5.31c.18.428.865.547 1.53.265.663-.281 1.055-.857.875-1.285l-2.236-5.31c-.18-.428-.865-.547-1.53-.266M35.619 63.322l1.089 2.585c.18.429-.212 1.005-.876 1.286-.664.282-1.349.163-1.53-.266l-1.088-2.586c-.18-.428.212-1.004.876-1.285.664-.282 1.348-.163 1.529.266"/>
        <path fill="#0064D2" d="M86.783 38.045c.26-.042.52-.07.778-.084L85.42 24.82a2.666 2.666 0 0 0-3.05-2.202l-52.676 8.64c.004.02.01.04.013.06a3.566 3.566 0 0 1-2.935 4.096 3.555 3.555 0 0 1-4.08-2.945c-.004-.02-.005-.041-.008-.062L8.392 34.75a2.674 2.674 0 0 0-2.194 3.062l2.134 13.103.153-.03c4.004-.656 7.78 2.069 8.434 6.087.654 4.018-2.06 7.807-6.065 8.464-.051.008-.102.014-.155.021l2.21 13.568a2.666 2.666 0 0 0 3.05 2.201l14.3-2.345c-.012-.055-.026-.108-.035-.164a3.566 3.566 0 0 1 2.934-4.096 3.556 3.556 0 0 1 4.081 2.946c.01.056.013.11.02.166l52.68-8.64a2.673 2.673 0 0 0 2.193-3.061l-2.215-13.605a7.449 7.449 0 0 1-.764.167c-4.003.657-7.78-2.068-8.434-6.086-.654-4.017 2.061-7.807 6.064-8.464"/>
        <path fill="#FFDF00" d="M28.31 38.019l.45 2.77c.075.459-.441.926-1.153 1.043-.711.116-1.349-.161-1.423-.62l-.451-2.771c-.075-.46.441-.926 1.152-1.042.712-.117 1.35.16 1.424.62M28.263 45.858c-.712.117-1.228.583-1.153 1.043l.926 5.688c.075.46.713.737 1.424.62.712-.116 1.228-.583 1.153-1.042l-.926-5.689c-.075-.46-.712-.737-1.424-.62m1.853 11.378c-.711.117-1.228.583-1.153 1.042l.926 5.69c.075.458.713.736 1.424.62.711-.117 1.228-.584 1.153-1.043l-.926-5.689c-.075-.46-.713-.737-1.424-.62M33.392 69.233l.452 2.771c.074.459-.442.926-1.153 1.043-.712.116-1.35-.161-1.424-.62l-.451-2.771c-.075-.46.441-.925 1.153-1.042.711-.117 1.349.16 1.423.62"/>
        <path fill="#E6E7E8" d="M68.667 51.08c0 6.446-5.207 11.672-11.63 11.672-6.423 0-11.63-5.226-11.63-11.672 0-6.446 5.207-11.672 11.63-11.672 6.423 0 11.63 5.226 11.63 11.672"/>
        <path fill="#EAC800" d="M93.918 75.316c0 7.749-6.259 14.03-13.98 14.03s-13.98-6.281-13.98-14.03c0-7.748 6.259-14.03 13.98-14.03s13.98 6.282 13.98 14.03"/>
        <path fill="#FFDF00" d="M96.982 75.316c0 7.749-6.259 14.03-13.98 14.03-7.72 0-13.98-6.281-13.98-14.03 0-7.748 6.26-14.03 13.98-14.03 7.721 0 13.98 6.282 13.98 14.03"/>
        <path fill="#0064D2" d="M89.902 71.702a1.754 1.754 0 0 0-2.486 0l-5.503 5.522-2.4-2.408c-.649-.651-1.703-.757-2.411-.17a1.769 1.769 0 0 0-.128 2.611l2.453 2.462.758.76a2.438 2.438 0 0 0 3.457 0l.757-.76 5.503-5.522a1.768 1.768 0 0 0 0-2.495"/>
    </g>
</svg>
