<svg xmlns="http://www.w3.org/2000/svg" xmlns:xlink="http://www.w3.org/1999/xlink" width="100" height="100" viewBox="0 0 100 100">
    <defs>
        <path id="a" d="M49.823 0C22.306 0 0 22.386 0 50s22.306 50 49.823 50c27.516 0 49.822-22.386 49.822-50S77.34 0 49.823 0z"/>
        <linearGradient id="b" x1="50%" x2="50%" y1="22.954%" y2="75.504%">
            <stop offset="0%" stop-color="#D3E2FB"/>
            <stop offset="100%" stop-color="#EFF4FF"/>
        </linearGradient>
        <path id="d" d="M14.093.34c-.723.243-1.371.651-1.944 1.226L10.34 3.38 2.826 1.578c-.121-.038-.233-.008-.339.09L1.04 3.12a.352.352 0 0 0-.101.306.38.38 0 0 0 .192.272l6.184 3.259L4.432 9.85 1.752 9.2a.224.224 0 0 0-.09-.012.351.351 0 0 0-.26.102l-1.085 1.1a.39.39 0 0 0-.101.284c.014.12.063.208.146.26l2.848 2.144 2.136 2.858a.407.407 0 0 0 .272.148c.128 0 .214-.034.282-.102l1.085-1.088a.346.346 0 0 0 .09-.352l-.56-2.601L9.4 9.048l3.157 6.117a.314.314 0 0 0 .238.182c.022.008.049.011.079.011.09 0 .162-.022.215-.068l1.446-1.089c.128-.105.173-.23.136-.373l-1.808-7.895 1.82-1.826a4.95 4.95 0 0 0 1.22-1.95c.24-.727.196-1.286-.136-1.68-.227-.192-.51-.289-.848-.289-.246 0-.52.051-.825.153z"/>
        <path id="f" d="M.176 2.789v6.048c0 1.23 1.084 2.23 2.417 2.23l-1.036.954v.319h1.54l1.38-1.274h2.605l1.38 1.274h1.382v-.319l-1.036-.955c1.333 0 2.418-1 2.418-2.229V2.79C11.226.56 8.753.242 5.7.242 2.938.242.176.56.176 2.789zM6.39 5.336h3.453V2.789H6.391v2.547zm-4.834 0H5.01V2.789H1.557v2.547zm6.215 3.501c0-.528.463-.954 1.036-.954.574 0 1.036.426 1.036.954 0 .529-.462.955-1.036.955-.573 0-1.036-.426-1.036-.955zm-6.215 0c0-.528.463-.954 1.036-.954s1.036.426 1.036.954c0 .529-.463.955-1.036.955s-1.036-.426-1.036-.955z"/>
        <path id="h" d="M2.401.193c-.448 0-.768.29-.896.723L.161 5.253v5.783c0 .433.256.723.64.723h.64c.384 0 .64-.29.64-.723v-.723h7.684v.723c0 .433.256.723.64.723h.64c.384 0 .64-.29.64-.723V5.253L10.341.916C10.213.482 9.83.193 9.445.193H2.4zm.135 1.3h6.807l1.029 3.519H1.507l1.029-3.52zM8.804 6.94c0-.515.448-.964.96-.964.513 0 .961.45.961.964a.986.986 0 0 1-.96.963.987.987 0 0 1-.96-.963zm-7.683 0c0-.515.449-.964.96-.964.513 0 .96.45.96.964a.986.986 0 0 1-.96.963.986.986 0 0 1-.96-.963z"/>
        <path id="j" d="M7.398.423L5.488 2.15l.602.672a.281.281 0 1 1-.418.378l-.602-.672L.44 6.71a.812.812 0 0 0-.06 1.145l.435.485c.52-.407 1.292-.326 1.762.198.47.525.47 1.303.013 1.78l.664.741c.3.332.81.36 1.141.06l4.614-4.17-.684-.762a.283.283 0 0 1 .02-.4.281.281 0 0 1 .398.022l.685.763 1.925-1.74a.813.813 0 0 0 .06-1.145l-.665-.74a.98.98 0 0 1-.064.062c-.52.47-1.34.407-1.832-.142-.49-.547-.468-1.372.052-1.842.023-.02.045-.04.069-.058L8.538.484a.803.803 0 0 0-1.14-.06zm.155 4.903L6.382 4.022a.284.284 0 0 1 .02-.4.28.28 0 0 1 .398.021l1.17 1.305a.284.284 0 0 1-.02.399.28.28 0 0 1-.398-.02zm-2.316.397a.202.202 0 0 1 .28.058.2.2 0 0 1 .033.12l-.023.566.44.354c.088.07.102.198.031.285a.199.199 0 0 1-.111.07l-.516.12-.173.503a.202.202 0 0 1-.257.125.201.201 0 0 1-.104-.082l-.305-.476-.563-.037a.202.202 0 0 1-.188-.215.2.2 0 0 1 .045-.115l.344-.421-.158-.521a.203.203 0 0 1 .135-.253.203.203 0 0 1 .137.007l.5.211.453-.299z"/>
        <path id="l" d="M7.398.423L5.488 2.15l.602.672a.281.281 0 1 1-.418.378l-.602-.672L.44 6.71a.812.812 0 0 0-.06 1.145l.435.485c.52-.407 1.292-.326 1.762.198.47.525.47 1.303.013 1.78l.664.741c.3.332.81.36 1.141.06l4.614-4.17-.684-.762a.283.283 0 0 1 .02-.4.281.281 0 0 1 .398.022l.685.763 1.925-1.74a.813.813 0 0 0 .06-1.145l-.665-.74a.98.98 0 0 1-.064.062c-.52.47-1.34.407-1.832-.142-.49-.547-.468-1.372.052-1.842.023-.02.045-.04.069-.058L8.538.484a.804.804 0 0 0-1.14-.06zm.155 4.903L6.382 4.022a.284.284 0 0 1 .02-.4.28.28 0 0 1 .398.021l1.17 1.305a.284.284 0 0 1-.02.399.279.279 0 0 1-.398-.02zm-2.316.397a.202.202 0 0 1 .28.058.2.2 0 0 1 .033.12l-.023.566.44.354c.088.07.102.198.031.285a.199.199 0 0 1-.111.07l-.516.12-.173.503a.202.202 0 0 1-.257.125.201.201 0 0 1-.104-.082l-.305-.476-.563-.037a.202.202 0 0 1-.188-.215.2.2 0 0 1 .045-.115l.344-.421-.158-.521a.203.203 0 0 1 .135-.253.203.203 0 0 1 .137.007l.5.211.453-.299z"/>
        <path id="n" d="M.335 2.067c0 1.076.871 1.95 1.943 1.95a1.947 1.947 0 0 0 1.942-1.95C4.22.992 3.35.12 2.278.12A1.947 1.947 0 0 0 .335 2.067z"/>
        <path id="p" d="M.167.212V9.47c0 .27.217.487.485.487H1.7a.486.486 0 0 0 .485-.487V7.058h9.64V9.47c0 .27.218.487.486.487h.965a.486.486 0 0 0 .486-.487V3.46c0-1.196-1.107-2.165-2.473-2.165H6.346v3.79H1.402V.211H.167z"/>
    </defs>
    <g fill="none" fill-rule="evenodd">
        <g>
            <mask id="c" fill="#fff">
                <use xlink:href="#a"/>
            </mask>
            <path fill="url(#b)" d="M49.823 0C22.306 0 0 22.386 0 50s22.306 50 49.823 50c27.516 0 49.822-22.386 49.822-50S77.34 0 49.823 0z" mask="url(#c)"/>
        </g>
        <path fill="#EFEFEF" d="M99.823 90.57c0 1.768-22.306 3.202-49.823 3.202-27.516 0-49.823-1.434-49.823-3.203S22.484 87.367 50 87.367c27.517 0 49.823 1.433 49.823 3.202"/>
        <path fill="#005696" d="M11.065 84.46l14.765 1.733a3.253 3.253 0 0 0 3.605-2.861l3.171-27.221a3.26 3.26 0 0 0-2.85-3.619L14.99 50.76a3.253 3.253 0 0 0-3.605 2.861L8.214 80.842a3.26 3.26 0 0 0 2.85 3.618"/>
        <path fill="#007AE8" d="M29.41 58.559l9.734-1.207c.671-.083 4.726.474 5.334.782l8.913 5.788c1.376.697 1.96 2.678 1.301 4.412l1.695-.285c-.383 1.008.26 2.62-.552 2.887-.488.16-4.068-.46-4.566-.649l-8.15-3.11c-1.206-.461-2.536-.35-3.735.314l-.399.22c-.995.55-1.065 2.254-.114 2.783l7.325 4.07a7.062 7.062 0 0 0 4.578.817l18.445-1.733c.526-.05 4.401.437 4.827.731.519.36-2.448.602-2.249 1.338.442 1.626-.25 3.47-1.574 4.195L58.03 86.594a7.865 7.865 0 0 1-3.031.952l-5.06 1.331c-1.089.105-5.488-.61-6.483-1.08l-16.442-7.763 2.396-21.475z"/>
        <path fill="#0D98FF" d="M33.097 59.083l9.734-1.207a3.368 3.368 0 0 1 1.947.342l12.3 6.228c1.376.698 1.96 2.678 1.301 4.413-.613 1.613-2.095 2.459-3.422 1.952l-8.15-3.11c-1.207-.461-2.537-.35-3.736.314l-.398.22c-.996.55-1.066 2.254-.115 2.783l7.326 4.07a7.062 7.062 0 0 0 4.577.817l18.445-1.733c1.17-.11 2.215.73 2.579 2.07.44 1.625-.251 3.469-1.575 4.194l-12.194 6.682a7.864 7.864 0 0 1-3.031.952l-8.38.805a6.012 6.012 0 0 1-3.163-.554L30.7 80.558l2.397-21.475z"/>
        <path fill="#0064D2" d="M12.47 84.582l14.766 1.733a3.253 3.253 0 0 0 3.605-2.861l3.171-27.221a3.26 3.26 0 0 0-2.85-3.62l-14.766-1.731a3.253 3.253 0 0 0-3.605 2.861L9.62 80.963a3.26 3.26 0 0 0 2.85 3.62"/>
        <path fill="#E6E7E8" d="M29.219 82.058a2.6 2.6 0 0 1-3.101 1.984 2.61 2.61 0 0 1-1.977-3.112 2.6 2.6 0 0 1 3.1-1.984 2.61 2.61 0 0 1 1.978 3.112"/>
        <path fill="#EAC800" d="M97.392 59.738c0 8.064-6.514 14.601-14.55 14.601-8.035 0-14.55-6.537-14.55-14.601s6.515-14.602 14.55-14.602c8.036 0 14.55 6.538 14.55 14.602"/>
        <path fill="#FFDF00" d="M99.28 60.094c0 8.064-6.515 14.601-14.55 14.601s-14.55-6.537-14.55-14.601 6.515-14.602 14.55-14.602 14.55 6.538 14.55 14.602"/>
        <g transform="translate(76.596 51.957)">
            <mask id="e" fill="#fff">
                <use xlink:href="#d"/>
            </mask>
            <path fill="#0064D2" d="M-6.385 22.707h29.039V-6.435h-29.04z" mask="url(#e)"/>
        </g>
        <path fill="#EAC800" d="M87.249 27.643c0 5.955-4.81 10.783-10.745 10.783-5.934 0-10.744-4.828-10.744-10.783 0-5.955 4.81-10.783 10.744-10.783 5.935 0 10.745 4.828 10.745 10.783"/>
        <path fill="#FFDF00" d="M88.785 27.643c0 5.955-4.81 10.783-10.744 10.783s-10.745-4.828-10.745-10.783c0-5.955 4.811-10.783 10.745-10.783 5.934 0 10.744 4.828 10.744 10.783"/>
        <g transform="translate(72.34 21.352)">
            <mask id="g" fill="#fff">
                <use xlink:href="#f"/>
            </mask>
            <path fill="#0064D2" d="M-4.847 17.38h21.095V-4.799H-4.847z" mask="url(#g)"/>
        </g>
        <g>
            <path fill="#EAC800" d="M62.06 43.82c0 5.955-4.811 10.783-10.745 10.783-5.934 0-10.745-4.828-10.745-10.783 0-5.955 4.81-10.783 10.745-10.783 5.934 0 10.744 4.828 10.744 10.783"/>
            <path fill="#FFDF00" d="M63.596 43.82c0 5.955-4.81 10.783-10.745 10.783-5.934 0-10.744-4.828-10.744-10.783 0-5.955 4.81-10.783 10.744-10.783 5.935 0 10.745 4.828 10.745 10.783"/>
        </g>
        <g transform="translate(46.809 37.722)">
            <mask id="i" fill="#fff">
                <use xlink:href="#h"/>
            </mask>
            <path fill="#0064D2" d="M-4.641 16.578h21.129V-4.626h-21.13z" mask="url(#i)"/>
        </g>
        <g>
            <path fill="#EAC800" d="M49.053 14.5c0 4.907-3.964 8.885-8.853 8.885-4.89 0-8.855-3.978-8.855-8.885 0-4.908 3.965-8.886 8.855-8.886 4.89 0 8.853 3.978 8.853 8.886"/>
            <path fill="#FFDF00" d="M50.32 14.5c0 4.907-3.964 8.885-8.854 8.885-4.89 0-8.855-3.978-8.855-8.885 0-4.908 3.965-8.886 8.855-8.886 4.89 0 8.854 3.978 8.854 8.886"/>
            <path fill="#0064D2" d="M45.855 11.843l.664.74a.813.813 0 0 1-.06 1.146l-1.925 1.74-.684-.763a.283.283 0 0 0-.418.378l.684.762-4.614 4.17a.806.806 0 0 1-1.141-.06l-.664-.74c.456-.479.457-1.256-.013-1.781-.47-.525-1.242-.605-1.763-.199l-.434-.484a.812.812 0 0 1 .06-1.145l4.629-4.183.602.672a.281.281 0 0 0 .398.02.283.283 0 0 0 .02-.398l-.602-.672 1.91-1.726a.806.806 0 0 1 1.14.06l.435.484a1.054 1.054 0 0 0-.068.058c-.52.47-.543 1.294-.052 1.842.492.548 1.312.612 1.831.142.023-.02.044-.041.065-.063zm-4.346.676a.284.284 0 0 0-.02.4l1.17 1.304a.28.28 0 0 0 .397.02.283.283 0 0 0 .021-.398l-1.17-1.305a.28.28 0 0 0-.398-.02zm-1.031 3.675l.515-.12a.204.204 0 0 0 .08-.356l-.44-.355.023-.565a.202.202 0 0 0-.313-.178l-.452.299-.5-.211a.203.203 0 0 0-.272.246l.157.52-.344.421a.197.197 0 0 0-.045.116.201.201 0 0 0 .189.215l.563.036.305.477a.202.202 0 0 0 .36-.044l.174-.501z"/>
        </g>
        <g transform="translate(35.106 8.897)">
            <mask id="k" fill="#fff">
                <use xlink:href="#j"/>
            </mask>
            <path fill="#0064D2" d="M-3.815 15.808h20.267V-4.531H-3.815z" mask="url(#k)"/>
        </g>
        <g transform="translate(35.106 8.897)">
            <mask id="m" fill="#fff">
                <use xlink:href="#l"/>
            </mask>
            <path fill="#0064D2" d="M-6.123 6.94L8.31-6.104l9.606 10.706L3.483 17.646z" mask="url(#m)"/>
        </g>
        <g>
            <path fill="#EAC800" d="M27.73 33.91c0 6.858-5.54 12.417-12.374 12.417-6.833 0-12.372-5.56-12.372-12.417 0-6.858 5.54-12.417 12.372-12.417 6.834 0 12.373 5.559 12.373 12.417"/>
            <path fill="#FFDF00" d="M29.62 33.91c0 6.858-5.539 12.417-12.372 12.417S4.875 40.767 4.875 33.91c0-6.858 5.54-12.417 12.373-12.417 6.833 0 12.373 5.559 12.373 12.417"/>
        </g>
        <g transform="translate(12.057 29.893)">
            <mask id="o" fill="#fff">
                <use xlink:href="#n"/>
            </mask>
            <path fill="#0064D2" d="M-4.52 8.89H9.076V-4.754H-4.52z" mask="url(#o)"/>
        </g>
        <g transform="translate(10.284 28.826)">
            <mask id="q" fill="#fff">
                <use xlink:href="#p"/>
            </mask>
            <path fill="#0064D2" d="M-4.689 14.83h23.306V-4.661H-4.689z" mask="url(#q)"/>
        </g>
    </g>
</svg>
