<svg xmlns="http://www.w3.org/2000/svg" xmlns:xlink="http://www.w3.org/1999/xlink" width="100" height="100" viewBox="0 0 100 100">
    <defs>
        <path id="a" d="M49.823 0C22.307 0 0 22.386 0 50s22.307 50 49.823 50c27.516 0 49.822-22.386 49.822-50S77.34 0 49.823 0z"/>
        <linearGradient id="b" x1="50%" x2="50%" y1="22.954%" y2="75.504%">
            <stop offset="0%" stop-color="#D3E2FB"/>
            <stop offset="100%" stop-color="#EFF4FF"/>
        </linearGradient>
    </defs>
    <g fill="none" fill-rule="evenodd">
        <g>
            <mask id="c" fill="#fff">
                <use xlink:href="#a"/>
            </mask>
            <path fill="url(#b)" d="M49.823 0C22.307 0 0 22.386 0 50s22.307 50 49.823 50c27.516 0 49.822-22.386 49.822-50S77.34 0 49.823 0z" mask="url(#c)"/>
        </g>
        <path fill="#EFEFEF" d="M99.823 90.57c0 1.768-22.307 3.202-49.823 3.202-27.516 0-49.823-1.434-49.823-3.203S22.484 87.367 50 87.367c27.516 0 49.823 1.433 49.823 3.202"/>
        <path fill="#005696" d="M77.706 90.57H21.94c-1.64 0-2.967-2.22-2.967-4.96V23.287c0-2.74 1.328-4.96 2.967-4.96h55.767c1.64 0 2.968 2.22 2.968 4.96V85.61c0 2.74-1.329 4.96-2.968 4.96"/>
        <path fill="#0D98FF" d="M31.383 21.53s.355-7.829-3.9-12.1h9.22s3.9 3.203 3.9 12.1h-9.22z"/>
        <path fill="#0064D2" d="M80.674 85.18V23.717c0-2.977-1.444-5.39-3.225-5.39H27.43V90.57h50.02c1.781 0 3.225-2.414 3.225-5.39"/>
        <path fill="#FFDF00" d="M70.035 44.484c0 9.14-7.382 16.548-16.489 16.548-9.107 0-16.49-7.409-16.49-16.548 0-9.14 7.383-16.548 16.49-16.548s16.49 7.408 16.49 16.548"/>
        <path fill="#0064D2" d="M56.642 44.322c.247-.178.486-.373.708-.595a5.727 5.727 0 0 0-.223-8.292c-2.138-1.932-5.467-1.932-7.606 0a5.728 5.728 0 0 0-.222 8.292c.235.236.49.442.752.628-4.933 1.51-5.652 6.472-5.66 9.18-.004.997.8 1.804 1.792 1.803 1.976-.004 5.225-.008 7.142-.008 2.052 0 5.74.004 7.921.008a1.79 1.79 0 0 0 1.79-1.873c-.127-2.745-1.11-7.687-6.394-9.143"/>
        <path fill="#E6E7E8" d="M68.77 72.082H39.386a.557.557 0 0 1-.556-.558V67.46c0-.308.249-.558.556-.558H68.77c.307 0 .556.25.556.558v4.065a.557.557 0 0 1-.556.558M66.36 80.009H41.796a.696.696 0 0 1-.694-.697v-3.016c0-.385.311-.697.694-.697h24.566c.383 0 .694.312.694.697v3.016a.696.696 0 0 1-.694.697"/>
        <path fill="#0D98FF" d="M28.62 29.36h-9.722a2.413 2.413 0 0 1-2.409-2.418v-.504a2.413 2.413 0 0 1 2.409-2.417h9.722a2.413 2.413 0 0 1 2.408 2.417v.504a2.413 2.413 0 0 1-2.408 2.417M28.62 56.406h-9.722a2.413 2.413 0 0 1-2.409-2.417v-.504a2.413 2.413 0 0 1 2.409-2.417h9.722a2.413 2.413 0 0 1 2.408 2.417v.504a2.413 2.413 0 0 1-2.408 2.417M28.62 84.875h-9.722a2.413 2.413 0 0 1-2.409-2.417v-.504a2.413 2.413 0 0 1 2.409-2.417h9.722a2.413 2.413 0 0 1 2.408 2.417v.504a2.413 2.413 0 0 1-2.408 2.417"/>
    </g>
</svg>
