<svg xmlns="http://www.w3.org/2000/svg" xmlns:xlink="http://www.w3.org/1999/xlink" width="100" height="100" viewBox="0 0 100 100">
    <defs>
        <path id="a" d="M49.823 0C22.306 0 0 22.386 0 50s22.306 50 49.823 50c27.516 0 49.822-22.386 49.822-50S77.34 0 49.823 0z"/>
        <linearGradient id="b" x1="50%" x2="50%" y1="22.954%" y2="75.504%">
            <stop offset="0%" stop-color="#D3E2FB"/>
            <stop offset="100%" stop-color="#EFF4FF"/>
        </linearGradient>
    </defs>
    <g fill="none" fill-rule="evenodd">
        <g>
            <mask id="c" fill="#fff">
                <use xlink:href="#a"/>
            </mask>
            <path fill="url(#b)" d="M49.823 0C22.306 0 0 22.386 0 50s22.306 50 49.823 50c27.516 0 49.822-22.386 49.822-50S77.34 0 49.823 0z" mask="url(#c)"/>
        </g>
        <path fill="#EFEFEF" d="M99.823 90.57c0 1.768-22.307 3.202-49.823 3.202-27.516 0-49.823-1.434-49.823-3.203S22.484 87.367 50 87.367c27.516 0 49.823 1.433 49.823 3.202"/>
        <path fill="#0064D2" d="M40.426 21.48c-2.27 0-4.116-1.854-4.116-4.131 0-2.278 1.846-4.131 4.116-4.131a.66.66 0 0 1 .658.661.66.66 0 0 1-.658.661 2.807 2.807 0 0 0-2.8 2.809 2.807 2.807 0 0 0 2.8 2.808.66.66 0 0 1 .658.662.66.66 0 0 1-.658.66M51.418 21.48c-2.27 0-4.116-1.854-4.116-4.131 0-2.278 1.847-4.131 4.116-4.131a.66.66 0 0 1 .659.661.66.66 0 0 1-.659.661 2.807 2.807 0 0 0-2.798 2.809 2.807 2.807 0 0 0 2.798 2.808.66.66 0 0 1 .659.662.66.66 0 0 1-.659.66M62.411 21.48c-2.27 0-4.116-1.854-4.116-4.131 0-2.278 1.847-4.131 4.116-4.131a.66.66 0 0 1 .659.661.66.66 0 0 1-.659.661 2.807 2.807 0 0 0-2.799 2.809 2.807 2.807 0 0 0 2.8 2.808.66.66 0 0 1 .658.662.66.66 0 0 1-.659.66M73.404 21.48c-2.27 0-4.116-1.854-4.116-4.131 0-2.278 1.847-4.131 4.116-4.131a.66.66 0 0 1 .659.661.66.66 0 0 1-.659.661 2.807 2.807 0 0 0-2.799 2.809 2.807 2.807 0 0 0 2.8 2.808.66.66 0 0 1 .658.662.66.66 0 0 1-.659.66M29.433 21.48c-2.27 0-4.116-1.854-4.116-4.131 0-2.278 1.846-4.131 4.116-4.131a.66.66 0 0 1 .658.661.66.66 0 0 1-.658.661 2.807 2.807 0 0 0-2.8 2.809 2.807 2.807 0 0 0 2.8 2.808.66.66 0 0 1 .658.662.66.66 0 0 1-.658.66"/>
        <path fill="#005696" d="M18.771 90.57h48.34a2.936 2.936 0 0 0 2.907-2.557L78.816 21.3a2.938 2.938 0 0 0-2.906-3.328H27.57a2.936 2.936 0 0 0-2.907 2.556L15.865 87.24a2.938 2.938 0 0 0 2.906 3.328"/>
        <path fill="#0064D2" d="M86.08 90.57H36.687a2.412 2.412 0 0 1-2.389-2.101l-8.936-67.762a2.415 2.415 0 0 1 2.388-2.735h49.395c1.208 0 2.23.898 2.388 2.1l8.937 67.762a2.415 2.415 0 0 1-2.388 2.735"/>
        <path fill="#0D98FF" d="M84.183 56.406L79.5 19.823a2.127 2.127 0 0 0-2.106-1.851h-49.97a2.13 2.13 0 0 0-2.106 2.41l4.61 36.024h54.255z"/>
        <path fill="#0064D2" d="M29.433 21.48a.66.66 0 0 1-.659-.661.66.66 0 0 1 .659-.662 2.807 2.807 0 0 0 2.799-2.808 2.807 2.807 0 0 0-2.8-2.809.66.66 0 0 1-.658-.66.66.66 0 0 1 .659-.662c2.27 0 4.116 1.853 4.116 4.13 0 2.278-1.847 4.132-4.116 4.132M40.426 21.48a.66.66 0 0 1-.659-.661.66.66 0 0 1 .659-.662 2.807 2.807 0 0 0 2.798-2.808 2.807 2.807 0 0 0-2.798-2.809.66.66 0 0 1-.659-.66.66.66 0 0 1 .659-.662c2.269 0 4.115 1.853 4.115 4.13 0 2.278-1.846 4.132-4.115 4.132M51.418 21.48a.66.66 0 0 1-.658-.661.66.66 0 0 1 .658-.662 2.807 2.807 0 0 0 2.8-2.808 2.807 2.807 0 0 0-2.8-2.809.66.66 0 0 1-.658-.66.66.66 0 0 1 .658-.662c2.27 0 4.116 1.853 4.116 4.13 0 2.278-1.846 4.132-4.116 4.132M62.411 21.48a.66.66 0 0 1-.658-.661.66.66 0 0 1 .658-.662 2.807 2.807 0 0 0 2.8-2.808 2.807 2.807 0 0 0-2.8-2.809.66.66 0 0 1-.658-.66.66.66 0 0 1 .658-.662c2.27 0 4.116 1.853 4.116 4.13 0 2.278-1.846 4.132-4.116 4.132M73.404 21.48a.66.66 0 0 1-.658-.661.66.66 0 0 1 .658-.662 2.807 2.807 0 0 0 2.8-2.808 2.807 2.807 0 0 0-2.8-2.809.66.66 0 0 1-.658-.66.66.66 0 0 1 .658-.662c2.27 0 4.116 1.853 4.116 4.13 0 2.278-1.846 4.132-4.116 4.132"/>
        <path fill="#FFDF00" d="M59.025 33.536h-9.139l1.163-1.166a1.605 1.605 0 0 0 0-2.265 1.592 1.592 0 0 0-2.257 0l-3.941 3.955a1.605 1.605 0 0 0 0 2.265l3.802 3.816a1.59 1.59 0 0 0 2.258 0 1.606 1.606 0 0 0 0-2.264l-1.135-1.138h9.25c2.649 0 4.804 2.163 4.804 4.822 0 2.658-2.155 4.821-4.805 4.821h-4.55c-.88 0-1.595.717-1.595 1.601 0 .885.715 1.602 1.596 1.602h4.55c4.408 0 7.995-3.6 7.995-8.024 0-4.425-3.587-8.025-7.996-8.025"/>
        <path fill="#E6E7E8" d="M43.44 64.769c.149 1.867-1.239 3.38-3.1 3.38-1.86 0-3.489-1.513-3.638-3.38-.149-1.868 1.239-3.381 3.1-3.381 1.86 0 3.489 1.513 3.638 3.38M52.66 64.769c.149 1.867-1.24 3.38-3.1 3.38s-3.49-1.513-3.638-3.38c-.149-1.868 1.239-3.381 3.1-3.381 1.86 0 3.489 1.513 3.638 3.38M61.88 64.769c.148 1.867-1.24 3.38-3.1 3.38s-3.49-1.513-3.638-3.38c-.15-1.868 1.238-3.381 3.1-3.381 1.86 0 3.488 1.513 3.637 3.38M71.1 64.769c.148 1.867-1.24 3.38-3.1 3.38s-3.49-1.513-3.638-3.38c-.15-1.868 1.238-3.381 3.099-3.381 1.86 0 3.49 1.513 3.638 3.38M80.32 64.769c.148 1.867-1.24 3.38-3.1 3.38s-3.49-1.513-3.638-3.38c-.15-1.868 1.238-3.381 3.099-3.381 1.86 0 3.49 1.513 3.638 3.38"/>
        <path fill="#FFDF00" d="M44.504 74.733c.148 1.867-1.24 3.38-3.1 3.38s-3.49-1.513-3.638-3.38c-.149-1.867 1.239-3.38 3.1-3.38 1.86 0 3.489 1.513 3.638 3.38M53.723 74.733c.15 1.867-1.238 3.38-3.099 3.38-1.86 0-3.49-1.513-3.638-3.38-.15-1.867 1.238-3.38 3.1-3.38 1.86 0 3.488 1.513 3.637 3.38M62.943 74.733c.15 1.867-1.238 3.38-3.099 3.38-1.86 0-3.49-1.513-3.638-3.38-.15-1.867 1.238-3.38 3.099-3.38 1.86 0 3.49 1.513 3.638 3.38M72.163 74.733c.15 1.867-1.239 3.38-3.1 3.38-1.86 0-3.489-1.513-3.637-3.38-.15-1.867 1.238-3.38 3.099-3.38 1.86 0 3.49 1.513 3.638 3.38M81.383 74.733c.149 1.867-1.239 3.38-3.1 3.38-1.86 0-3.489-1.513-3.638-3.38-.149-1.867 1.239-3.38 3.1-3.38 1.86 0 3.489 1.513 3.638 3.38M45.567 83.986c.15 1.867-1.238 3.38-3.099 3.38-1.86 0-3.49-1.513-3.638-3.38-.15-1.867 1.238-3.381 3.1-3.381 1.86 0 3.488 1.514 3.637 3.38M54.787 83.986c.15 1.867-1.238 3.38-3.1 3.38-1.86 0-3.488-1.513-3.637-3.38-.15-1.867 1.238-3.381 3.099-3.381 1.86 0 3.49 1.514 3.638 3.38M64.007 83.986c.149 1.867-1.239 3.38-3.1 3.38-1.86 0-3.489-1.513-3.637-3.38-.15-1.867 1.238-3.381 3.099-3.381 1.86 0 3.49 1.514 3.638 3.38"/>
    </g>
</svg>
