<svg xmlns="http://www.w3.org/2000/svg" xmlns:xlink="http://www.w3.org/1999/xlink" width="100" height="100" viewBox="0 0 100 100">
    <defs>
        <path id="a" d="M49.823 0C22.307 0 0 22.306 0 49.823c0 27.516 22.307 49.822 49.823 49.822 27.516 0 49.822-22.306 49.822-49.822C99.645 22.306 77.34 0 49.823 0z"/>
        <linearGradient id="b" x1="50%" x2="50%" y1="22.954%" y2="75.504%">
            <stop offset="0%" stop-color="#D3E2FB"/>
            <stop offset="100%" stop-color="#EFF4FF"/>
        </linearGradient>
    </defs>
    <g fill="none" fill-rule="evenodd">
        <g>
            <mask id="c" fill="#fff">
                <use xlink:href="#a"/>
            </mask>
            <path fill="url(#b)" d="M49.823 0C22.307 0 0 22.306 0 49.823c0 27.516 22.307 49.822 49.823 49.822 27.516 0 49.822-22.306 49.822-49.822C99.645 22.306 77.34 0 49.823 0z" mask="url(#c)"/>
        </g>
        <path fill="#EFEFEF" d="M99.823 90.248c0 1.763-22.307 3.192-49.823 3.192C22.484 93.44.177 92.01.177 90.248c0-1.763 22.307-3.191 49.823-3.191 27.516 0 49.823 1.428 49.823 3.191"/>
        <path fill="#FFDF00" d="M68.78 31.466c-6.004 0-10.888-4.884-10.888-10.887 0-6.004 4.884-10.887 10.887-10.887a1.064 1.064 0 1 1 0 2.127c-4.83 0-8.76 3.93-8.76 8.76s3.93 8.76 8.76 8.76a1.064 1.064 0 1 1 0 2.127"/>
        <path fill="#0064D2" d="M56.904 36.942a3.303 3.303 0 1 1-.41-6.593 3.303 3.303 0 0 1 .41 6.593"/>
        <path fill="#0D98FF" d="M59.632 37.272a3.303 3.303 0 1 1-.41-6.594 3.303 3.303 0 0 1 .41 6.594m11.12 11.132l-2.567-15.74a9.28 9.28 0 0 0-9.73-7.768l-16.05.99a5.765 5.765 0 0 0-4.159 2.167L11.55 61.663a5.765 5.765 0 0 0 .928 8.1l22.293 17.706a5.764 5.764 0 0 0 8.099-.928l26.707-33.623a5.762 5.762 0 0 0 1.176-4.514"/>
        <path fill="#0D98FF" d="M59.632 37.272a3.303 3.303 0 1 1-.41-6.594 3.303 3.303 0 0 1 .41 6.594m-.555-8.92a5.635 5.635 0 1 0 .7 11.247 5.635 5.635 0 0 0-.7-11.247"/>
        <path fill="#005696" d="M69.155 33.176a3.303 3.303 0 1 1-2.542-6.098 3.303 3.303 0 0 1 2.542 6.098m14.148 6.887l-7.57-14.037a9.273 9.273 0 0 0-7.01-4.801c.233-.084 1.077-.646 1.077-.646s-1.992.105-4.014.744h.003a9.295 9.295 0 0 0-1.79.541l-14.846 6.18a5.764 5.764 0 0 0-3.222 3.409L31.684 71.942a5.765 5.765 0 0 0 3.525 7.35l26.855 9.45a5.74 5.74 0 0 0 3.018.22l2.932-.634-.714-.316a5.733 5.733 0 0 0 2.115-2.794l14.252-40.505a5.765 5.765 0 0 0-.364-4.65"/>
        <path fill="#0064D2" d="M71.84 32.597a3.303 3.303 0 1 1-2.541-6.099 3.303 3.303 0 0 1 2.542 6.099m14.148 6.886l-7.57-14.037a9.28 9.28 0 0 0-11.735-4.161l-14.845 6.18a5.764 5.764 0 0 0-3.222 3.408L34.37 71.362a5.765 5.765 0 0 0 3.525 7.351l26.855 9.45a5.765 5.765 0 0 0 7.351-3.525l14.252-40.505a5.767 5.767 0 0 0-.364-4.65"/>
        <path fill="#FFDF00" d="M65.117 64.355c-.448 1.243-.672 2.21-.672 2.902 0 .691.245 1.125.734 1.301.94.34 1.855-.725 2.743-3.193.882-2.448.852-3.841-.088-4.18-.489-.176-.952-.003-1.39.52-.437.523-.88 1.406-1.327 2.65zm6.517 2.313c-.807 2.243-1.85 3.773-3.13 4.59-1.278.817-2.759.922-4.443.316-1.616-.582-2.656-1.612-3.119-3.09-.464-1.477-.302-3.308.484-5.492 1.612-4.474 4.106-6.104 7.485-4.887 1.654.596 2.716 1.633 3.184 3.113.468 1.48.315 3.296-.46 5.45zm.46-16.758L52.45 67.094l-3.526-1.27L68.57 48.642l3.525 1.269zm-18.928.451c-.448 1.244-.672 2.211-.672 2.903 0 .69.244 1.125.734 1.301.94.339 1.854-.726 2.743-3.194.881-2.448.852-3.84-.088-4.179-.49-.177-.953-.003-1.39.52-.437.523-.88 1.406-1.327 2.65zm6.517 2.314c-.811 2.252-1.856 3.787-3.135 4.604-1.279.817-2.76.922-4.444.316-1.616-.582-2.656-1.611-3.119-3.09-.463-1.477-.3-3.313.49-5.506 1.611-4.475 4.106-6.104 7.484-4.887 1.655.595 2.716 1.633 3.185 3.112.468 1.48.314 3.296-.461 5.45z"/>
        <path fill="#0D98FF" d="M71.84 32.597a3.303 3.303 0 1 1-2.541-6.099 3.303 3.303 0 0 1 2.542 6.099m-3.44-8.25a5.635 5.635 0 1 0 4.337 10.402A5.635 5.635 0 0 0 68.4 24.347"/>
        <path fill="#FFDF00" d="M68.78 31.466a1.064 1.064 0 1 1 0-2.128c4.83 0 8.759-3.929 8.759-8.76 0-4.83-3.93-8.759-8.76-8.759a1.064 1.064 0 1 1 0-2.127c6.004 0 10.887 4.883 10.887 10.887 0 6.003-4.883 10.887-10.887 10.887"/>
    </g>
</svg>
