<svg xmlns="http://www.w3.org/2000/svg" xmlns:xlink="http://www.w3.org/1999/xlink" width="100" height="100" viewBox="0 0 100 100">
    <defs>
        <path id="a" d="M49.823 0C22.306 0 0 22.306 0 49.823c0 27.516 22.306 49.822 49.823 49.822 27.516 0 49.822-22.306 49.822-49.822C99.645 22.306 77.34 0 49.823 0z"/>
        <linearGradient id="b" x1="50%" x2="50%" y1="22.954%" y2="75.504%">
            <stop offset="0%" stop-color="#D3E2FB"/>
            <stop offset="100%" stop-color="#EFF4FF"/>
        </linearGradient>
    </defs>
    <g fill="none" fill-rule="evenodd">
        <g>
            <mask id="c" fill="#fff">
                <use xlink:href="#a"/>
            </mask>
            <path fill="url(#b)" d="M49.823 0C22.306 0 0 22.306 0 49.823c0 27.516 22.306 49.822 49.823 49.822 27.516 0 49.822-22.306 49.822-49.822C99.645 22.306 77.34 0 49.823 0z" mask="url(#c)"/>
        </g>
        <path fill="#EFEFEF" d="M99.823 90.248c0 1.763-22.306 3.192-49.823 3.192C22.484 93.44.177 92.01.177 90.248c0-1.763 22.307-3.191 49.823-3.191 27.517 0 49.823 1.428 49.823 3.191"/>
        <path fill="#0D98FF" d="M91.24 63.026c0 8.825-6.231 15.98-13.917 15.98s-13.916-7.155-13.916-15.98 6.23-15.98 13.916-15.98 13.916 7.155 13.916 15.98"/>
        <path fill="#FFDF00" d="M84.12 75.97c.834-4.453-6.213-9.715-8.998-11.367a1.063 1.063 0 1 1 1.085-1.83c.46.273 11.28 6.776 10.004 13.59l-2.091-.392z"/>
        <path fill="#EAC800" d="M49.662 9.057c14.922 0 27.062 12.14 27.062 27.061v9.09a1.84 1.84 0 1 1-3.678 0v-9.09c0-12.894-10.49-23.383-23.384-23.383V9.057z"/>
        <path fill="#FFDF00" d="M69.145 47.987l3.867-12.29h3.733l3.866 13.357z"/>
        <path fill="#FFDF00" d="M87.328 63.026c0 8.825-6.23 15.98-13.917 15.98-7.685 0-13.916-7.155-13.916-15.98s6.231-15.98 13.916-15.98c7.686 0 13.917 7.155 13.917 15.98"/>
        <path fill="#EAC800" d="M82.946 63.026c0 6.046-4.269 10.948-9.535 10.948-5.265 0-9.534-4.902-9.534-10.948s4.27-10.947 9.534-10.947c5.266 0 9.535 4.9 9.535 10.947"/>
        <path fill="#0064D2" d="M83.537 58.156c0 18.312-14.844 33.156-33.156 33.156-18.312 0-33.156-14.844-33.156-33.156C17.225 39.844 32.069 25 50.38 25c18.312 0 33.156 14.844 33.156 33.156"/>
        <path fill="#E6E7E8" d="M62.492 74.22c-8.244 0-10.846-5.308-11.07-8.115a1.242 1.242 0 0 1 2.474-.204c.025.261.657 5.838 8.596 5.838 7.873 0 8.664-5.637 8.694-5.877a1.241 1.241 0 0 1 2.467.281c-.31 2.794-3.041 8.078-11.161 8.078"/>
        <path fill="#FFDF00" d="M55.254 56.2h-6.942v-1.46l2.493-2.52c.738-.757 1.22-1.28 1.446-1.573.227-.292.39-.562.49-.812.099-.249.149-.507.149-.774 0-.398-.11-.695-.33-.89-.22-.194-.512-.292-.88-.292-.384 0-.758.088-1.12.265-.362.176-.74.428-1.134.754l-1.141-1.352c.489-.416.894-.71 1.215-.883a4.477 4.477 0 0 1 1.053-.397c.38-.093.806-.14 1.278-.14.62 0 1.168.114 1.643.34.475.227.844.544 1.107.951.263.408.394.874.394 1.4 0 .457-.08.886-.24 1.287-.162.4-.41.811-.748 1.232-.337.422-.932 1.022-1.783 1.8l-1.277 1.203v.095h4.327V56.2zM60.171 52.511v-1.684c0-.28.011-.688.034-1.222.023-.535.041-.845.055-.931h-.055c-.167.371-.369.733-.604 1.087l-1.82 2.75h2.39zm3.247 1.63h-1.196V56.2h-2.05v-2.058h-4.239v-1.46l4.354-6.413h1.935v6.242h1.196v1.63zM69.314 46.27l-3.702 9.93h-1.881l3.701-9.93zM70.924 56.2l3.729-8.15h-4.898v-1.767h7.126V47.6l-3.757 8.6z"/>
        <path fill="#005696" d="M25.806 58.156c0-18.237 11.087-33.03 24.798-33.15-.075 0-.148-.006-.223-.006-18.312 0-33.156 14.844-33.156 33.156 0 18.312 14.844 33.156 33.156 33.156.075 0 .148-.005.223-.006-13.71-.12-24.798-14.913-24.798-33.15"/>
        <path fill="#FFDF00" d="M40.741 63.026c0 8.825-6.23 15.98-13.916 15.98s-13.916-7.155-13.916-15.98 6.23-15.98 13.916-15.98 13.916 7.155 13.916 15.98M49.662 12.735c-12.893 0-23.383 10.49-23.383 23.383v6.002a1.84 1.84 0 0 1-3.678 0v-6.002c0-14.922 12.14-27.061 27.061-27.061v3.678z"/>
        <path fill="#FFDF00" d="M30.742 49.093l-4.715-13.395h-3.693l-4.938 12.647z"/>
        <path fill="#0D98FF" d="M36.83 63.026c0 8.825-6.23 15.98-13.917 15.98-7.685 0-13.915-7.155-13.915-15.98s6.23-15.98 13.915-15.98c7.686 0 13.917 7.155 13.917 15.98"/>
        <path fill="#0064D2" d="M31.98 63.026c0 7.12-5.027 12.892-11.228 12.892-6.2 0-11.227-5.772-11.227-12.892 0-7.12 5.027-12.891 11.227-12.891S31.98 55.907 31.98 63.026"/>
        <path fill="#005696" d="M12.631 63.026c0-10.676 8.12-12.891 8.12-12.891-6.2 0-11.226 5.772-11.226 12.891 0 7.12 5.026 12.892 11.227 12.892 0 0-8.12-2.216-8.12-12.892"/>
        <path fill="#FFDF00" d="M86.211 76.362c-.906 4.834-7.277 8.17-19.478 10.201a1.065 1.065 0 0 1-.35-2.099c13.774-2.291 17.248-5.883 17.737-8.493l2.091.391z"/>
        <path fill="#0D98FF" d="M72.031 85.756a4.746 4.746 0 1 1-9.492.001 4.746 4.746 0 0 1 9.492 0"/>
        <path fill="#FFDF00" d="M49.662 12.735s13.891-.306 20.556 5.802c0 0-6.641-9.48-20.556-9.48v3.678z"/>
    </g>
</svg>
