<svg xmlns="http://www.w3.org/2000/svg" xmlns:xlink="http://www.w3.org/1999/xlink" width="100" height="100" viewBox="0 0 100 100">
    <defs>
        <path id="a" d="M49.823 0C22.306 0 0 22.386 0 50s22.306 50 49.823 50c27.516 0 49.822-22.386 49.822-50S77.34 0 49.823 0z"/>
        <linearGradient id="b" x1="50%" x2="50%" y1="22.954%" y2="75.504%">
            <stop offset="0%" stop-color="#D3E2FB"/>
            <stop offset="100%" stop-color="#EFF4FF"/>
        </linearGradient>
    </defs>
    <g fill="none" fill-rule="evenodd">
        <g>
            <mask id="c" fill="#fff">
                <use xlink:href="#a"/>
            </mask>
            <path fill="url(#b)" d="M49.823 0C22.306 0 0 22.386 0 50s22.306 50 49.823 50c27.516 0 49.822-22.386 49.822-50S77.34 0 49.823 0z" mask="url(#c)"/>
        </g>
        <path fill="#EFEFEF" d="M99.823 90.57c0 1.768-22.307 3.202-49.823 3.202-27.516 0-49.823-1.434-49.823-3.203S22.484 87.367 50 87.367c27.516 0 49.823 1.433 49.823 3.202"/>
        <path fill="#0D98FF" d="M22.163 43.238l33.762-28.35a1.168 1.168 0 0 1 1.718.239l19.84 29.179-55.32-1.068z"/>
        <path fill="#007AE8" d="M28.546 45.018l27.305-22.42 14.184 20.996z"/>
        <path fill="#005696" d="M83.697 90.57H20.558a3.365 3.365 0 0 1-3.36-3.372V44.83a3.365 3.365 0 0 1 3.36-3.372h63.14c1.854 0 3.359 1.51 3.359 3.372v42.367a3.365 3.365 0 0 1-3.36 3.371"/>
        <path fill="#FFDF00" d="M26.773 42.883l41.866-19.547a2.198 2.198 0 0 1 3.037 1.095l8.052 18.926-52.955-.474z"/>
        <path fill="#0D98FF" d="M37.376 42.977l14.517.13 23.572-9.77-2.468-5.802z"/>
        <path fill="#0064D2" d="M87.057 86.906V45.123a3.657 3.657 0 0 0-3.651-3.664H23.582v49.11h59.824c2.016 0 3.65-1.64 3.65-3.663"/>
        <path fill="#FFDF00" d="M55.48 58.803h-9.14l1.163-1.167a1.605 1.605 0 0 0 0-2.264 1.592 1.592 0 0 0-2.257 0l-3.941 3.955a1.605 1.605 0 0 0 0 2.265l3.802 3.816a1.59 1.59 0 0 0 2.257 0 1.606 1.606 0 0 0 0-2.264l-1.134-1.138h9.25c2.649 0 4.804 2.163 4.804 4.822 0 2.658-2.155 4.82-4.805 4.82h-4.55c-.88 0-1.595.718-1.595 1.602 0 .885.714 1.602 1.596 1.602h4.55c4.408 0 7.995-3.6 7.995-8.024 0-4.425-3.587-8.025-7.996-8.025"/>
        <path fill="#0D98FF" d="M89.894 74.555H76.517c-2.796 0-5.063-2.275-5.063-5.081v-6.92c0-2.806 2.267-5.08 5.063-5.08h13.377v17.081z"/>
        <path fill="#E6E7E8" d="M86.348 65.836c0 2.654-2.144 4.805-4.788 4.805s-4.787-2.151-4.787-4.805c0-2.653 2.143-4.804 4.787-4.804s4.788 2.15 4.788 4.804"/>
    </g>
</svg>
